<?xml version="1.0" encoding="UTF-8"?>
<svg version="1.1" xmlns="http://www.w3.org/2000/svg" width="500" height="500">
<path d="M0 0 C4.39549999 -0.03923789 8.79102034 -0.06742714 13.18661976 -0.09282017 C15.07677548 -0.10654104 16.96690318 -0.12548799 18.85694218 -0.1505785 C40.29863572 -0.43273903 58.01320378 2.7818181 74.21145535 18.10088825 C78.21145535 22.58061798 78.21145535 22.58061798 78.21145535 26.10088825 C78.87145535 26.10088825 79.53145535 26.10088825 80.21145535 26.10088825 C87.25776842 39.74789776 88.66232545 53.13743929 88.53958035 68.23370075 C88.53700165 69.9375008 88.53570195 71.64130318 88.53555202 73.34510517 C88.53093163 77.99603995 88.50680867 82.64668284 88.47816372 87.29752445 C88.45564866 91.24358667 88.44271321 95.18965822 88.42964458 99.13576126 C88.3970257 108.91769017 88.34746298 118.6994504 88.28958035 128.48125935 C88.22920231 138.77322866 88.19036338 149.06513453 88.16458035 159.35723591 C88.13266649 172.06199448 88.08593883 184.76659885 88.02112865 197.47123432 C87.98584724 204.43659536 87.95621316 211.4018689 87.94155788 218.36730671 C87.92740991 224.9845849 87.89211818 231.60153282 87.84339809 238.21866131 C87.8285541 240.66686255 87.82039999 243.11511509 87.81950283 245.56336117 C87.80894736 260.64105917 87.18113431 272.48166831 80.21145535 286.10088825 C79.55145535 286.10088825 78.89145535 286.10088825 78.21145535 286.10088825 C77.96008816 286.83952106 77.70872097 287.57815388 77.4497366 288.3391695 C76.11907448 291.3069238 74.70166719 293.01209375 72.39895535 295.28838825 C71.39928738 296.29965778 71.39928738 296.29965778 70.3794241 297.331357 C68.07990476 299.20826198 66.00753475 300.14934291 63.21145535 301.10088825 C63.21145535 301.76088825 63.21145535 302.42088825 63.21145535 303.10088825 C61.54907638 303.9015193 59.8812741 304.69089194 58.21145535 305.47588825 C57.28333035 305.91674763 56.35520535 306.357607 55.39895535 306.81182575 C39.63825175 313.18563971 20.75612429 311.24098357 4.06301785 311.1829195 C1.72949185 311.17834513 -0.60403482 311.17410997 -2.93756199 311.17017841 C-8.76443006 311.15872556 -14.59126644 311.14158615 -20.41811073 311.12179476 C-25.54732101 311.10449946 -30.67653429 311.09012502 -35.80575657 311.07690144 C-53.88772516 311.02941881 -71.96947905 310.96091532 -90.05125904 310.86515331 C-98.6702196 310.81978886 -107.2891302 310.7802738 -115.90817356 310.75445271 C-123.59308242 310.73142688 -131.27786396 310.69807251 -138.96267164 310.65218669 C-142.98197538 310.62850489 -147.00115617 310.60960843 -151.02052784 310.60327435 C-154.76252689 310.59719869 -158.5041984 310.57711139 -162.24607563 310.54661274 C-164.24709094 310.53379279 -166.24818287 310.53538967 -168.24923801 310.53761005 C-179.06423335 310.42622594 -188.85199924 308.97413921 -198.03854465 303.03838825 C-199.1368259 302.34616169 -200.23510715 301.65393513 -201.36666965 300.940732 C-202.1658884 300.33358356 -202.96510715 299.72643513 -203.78854465 299.10088825 C-203.78854465 298.44088825 -203.78854465 297.78088825 -203.78854465 297.10088825 C-205.10854465 296.44088825 -206.42854465 295.78088825 -207.78854465 295.10088825 C-207.78854465 294.44088825 -207.78854465 293.78088825 -207.78854465 293.10088825 C-208.44854465 293.10088825 -209.10854465 293.10088825 -209.78854465 293.10088825 C-210.44854465 291.45088825 -211.10854465 289.80088825 -211.78854465 288.10088825 C-212.44854465 288.10088825 -213.10854465 288.10088825 -213.78854465 288.10088825 C-214.74479153 286.528806 -215.67724377 284.94225327 -216.60104465 283.35088825 C-217.38415012 282.02831013 -217.38415012 282.02831013 -218.1830759 280.67901325 C-223.56160355 268.69183243 -223.22356272 256.61520996 -223.19259739 243.74956989 C-223.19830766 241.60142889 -223.20527445 239.45329091 -223.21339512 237.30515766 C-223.23126821 231.49935131 -223.23016924 225.69369658 -223.22445273 219.88787103 C-223.22135265 215.02966657 -223.22746239 210.17149089 -223.23349148 205.31329054 C-223.24751568 193.84736429 -223.24599272 182.3815126 -223.23458958 170.91558552 C-223.2231082 159.11055834 -223.23718933 147.30575834 -223.26398605 135.50076109 C-223.2861783 125.34157279 -223.29277254 115.18245561 -223.28690964 105.0232448 C-223.28354759 98.96600744 -223.28590527 92.90891571 -223.30316067 86.85169888 C-223.31868407 81.15437816 -223.31461434 75.45739283 -223.29585552 69.76008511 C-223.2921847 67.67727438 -223.2952338 65.5944385 -223.30574131 63.51165104 C-223.37061761 49.58140121 -222.59385601 37.5140327 -215.16354465 25.28838825 C-214.57315403 24.29194294 -213.9827634 23.29549763 -213.37448215 22.268857 C-212.85112278 21.55342731 -212.3277634 20.83799763 -211.78854465 20.10088825 C-211.12854465 20.10088825 -210.46854465 20.10088825 -209.78854465 20.10088825 C-209.78854465 19.44088825 -209.78854465 18.78088825 -209.78854465 18.10088825 C-209.12854465 18.10088825 -208.46854465 18.10088825 -207.78854465 18.10088825 C-207.45854465 17.11088825 -207.12854465 16.12088825 -206.78854465 15.10088825 C-206.12854465 15.10088825 -205.46854465 15.10088825 -204.78854465 15.10088825 C-204.78854465 14.44088825 -204.78854465 13.78088825 -204.78854465 13.10088825 C-198.06006858 7.65567823 -191.22483003 3.95014646 -182.78854465 2.10088825 C-182.21823174 1.92940297 -181.64791883 1.75791769 -181.06032372 1.58123589 C-178.10204469 0.95573389 -175.30854671 0.95939717 -172.28382969 0.94266987 C-171.63162034 0.93773189 -170.97941099 0.93279391 -170.30743772 0.9277063 C-168.12169919 0.91235192 -165.93599005 0.90397432 -163.75021458 0.89556599 C-162.18058105 0.88598149 -160.61095007 0.87597107 -159.04132175 0.86556721 C-154.76376245 0.83846652 -150.48619219 0.8174572 -146.20859408 0.79756522 C-141.68617812 0.77556634 -137.16379436 0.74820827 -132.64140415 0.72150898 C-125.00044326 0.67716028 -117.35947007 0.63644701 -109.7184763 0.59820271 C-101.96715639 0.55939621 -94.21585795 0.51795449 -86.46457005 0.47320271 C-85.52190434 0.46776616 -84.57923864 0.46232962 -83.60800731 0.45672834 C-81.71170756 0.44577994 -79.81540784 0.43482585 -77.91910815 0.42386603 C-61.48429025 0.32904849 -45.04947046 0.24690842 -28.61451602 0.17968345 C-19.07606564 0.14050326 -9.53813909 0.08826145 0 0 Z M-110.78854465 78.10088825 C-111.28354465 79.58588825 -111.28354465 79.58588825 -111.78854465 81.10088825 C-112.44854465 81.10088825 -113.10854465 81.10088825 -113.78854465 81.10088825 C-113.78854465 81.76088825 -113.78854465 82.42088825 -113.78854465 83.10088825 C-114.3712009 83.35870075 -114.95385715 83.61651325 -115.55416965 83.88213825 C-117.96883496 85.19922842 -119.60594643 86.65177209 -121.53854465 88.60088825 C-122.1521384 89.20932575 -122.76573215 89.81776325 -123.39791965 90.44463825 C-125.00288553 91.99573102 -125.00288553 91.99573102 -124.78854465 94.10088825 C-125.44854465 94.10088825 -126.10854465 94.10088825 -126.78854465 94.10088825 C-126.78854465 94.76088825 -126.78854465 95.42088825 -126.78854465 96.10088825 C-127.44854465 96.10088825 -128.10854465 96.10088825 -128.78854465 96.10088825 C-128.78854465 96.76088825 -128.78854465 97.42088825 -128.78854465 98.10088825 C-129.3505759 98.33807575 -129.91260715 98.57526325 -130.49166965 98.81963825 C-133.30748507 100.39036522 -135.26809882 102.3156029 -137.53854465 104.60088825 C-138.3377634 105.39495075 -139.13698215 106.18901325 -139.96041965 107.00713825 C-142.00778075 108.88872287 -142.00778075 108.88872287 -141.78854465 111.10088825 C-142.3712009 111.35870075 -142.95385715 111.61651325 -143.55416965 111.88213825 C-145.96883496 113.19922842 -147.60594643 114.65177209 -149.53854465 116.60088825 C-150.1521384 117.20932575 -150.76573215 117.81776325 -151.39791965 118.44463825 C-153.00288553 119.99573102 -153.00288553 119.99573102 -152.78854465 122.10088825 C-153.44854465 122.10088825 -154.10854465 122.10088825 -154.78854465 122.10088825 C-154.78854465 122.76088825 -154.78854465 123.42088825 -154.78854465 124.10088825 C-155.44854465 124.10088825 -156.10854465 124.10088825 -156.78854465 124.10088825 C-156.78854465 124.76088825 -156.78854465 125.42088825 -156.78854465 126.10088825 C-157.3712009 126.35870075 -157.95385715 126.61651325 -158.55416965 126.88213825 C-160.96883496 128.19922842 -162.60594643 129.65177209 -164.53854465 131.60088825 C-165.1521384 132.20932575 -165.76573215 132.81776325 -166.39791965 133.44463825 C-168.00288553 134.99573102 -168.00288553 134.99573102 -167.78854465 137.10088825 C-168.44854465 137.10088825 -169.10854465 137.10088825 -169.78854465 137.10088825 C-169.78854465 137.76088825 -169.78854465 138.42088825 -169.78854465 139.10088825 C-170.44854465 139.10088825 -171.10854465 139.10088825 -171.78854465 139.10088825 C-171.78854465 139.76088825 -171.78854465 140.42088825 -171.78854465 141.10088825 C-172.34541965 141.32776325 -172.90229465 141.55463825 -173.47604465 141.78838825 C-176.45014053 143.47638861 -178.5086333 145.56765342 -180.78854465 148.10088825 C-180.78854465 148.76088825 -180.78854465 149.42088825 -180.78854465 150.10088825 C-181.44854465 150.10088825 -182.10854465 150.10088825 -182.78854465 150.10088825 C-186.57468462 156.68105361 -186.57468462 156.68105361 -186.78854465 164.10088825 C-184.62817206 170.67652234 -180.58097077 175.36913054 -174.78854465 179.10088825 C-170.02951526 181.19386453 -166.25866823 181.57217187 -161.35104465 179.78838825 C-159.49003549 178.9068576 -157.630381 178.02180642 -155.78854465 177.10088825 C-155.78854465 176.44088825 -155.78854465 175.78088825 -155.78854465 175.10088825 C-155.25245579 174.89149616 -154.71636692 174.68210407 -154.16403294 174.46636677 C-150.86649537 172.57087575 -148.41530037 169.9532494 -145.78073215 167.253232 C-145.21403812 166.6813364 -144.64734409 166.1094408 -144.06347752 165.52021503 C-142.25867193 163.69763601 -140.46071147 161.86849752 -138.66354465 160.03838825 C-136.8583715 158.20560205 -135.05176076 156.37429296 -133.24218845 154.5458498 C-132.1175693 153.40896794 -130.99563403 152.26942368 -129.8766489 151.12699604 C-126.01200848 147.21262017 -126.01200848 147.21262017 -123.78854465 146.10088825 C-123.78854465 145.44088825 -123.78854465 144.78088825 -123.78854465 144.10088825 C-123.12854465 144.10088825 -122.46854465 144.10088825 -121.78854465 144.10088825 C-120.26409199 142.60293115 -120.26409199 142.60293115 -118.6830759 140.63531208 C-114.80219833 136.07471758 -110.68778372 131.80450196 -106.47604465 127.550107 C-105.70349339 126.76948399 -104.93094212 125.98886097 -104.1349802 125.18458271 C-102.51283219 123.54870036 -100.88919462 121.91429382 -99.26413059 120.28130817 C-97.6092582 118.61484841 -95.95888 116.94391401 -94.31295872 115.26861286 C-91.91872609 112.83174517 -89.51154735 110.40836923 -87.10104465 107.987607 C-86.37167698 107.24073124 -85.6423093 106.49385548 -84.89083958 105.72434711 C-79.87741199 100.73194391 -75.75184385 97.45182974 -68.4799509 96.8079195 C-67.44741184 96.84272419 -66.41487278 96.87752888 -65.35104465 96.91338825 C-64.30045872 96.94045856 -63.24987278 96.96752888 -62.1674509 96.9954195 C-61.38241184 97.03022419 -60.59737278 97.06502888 -59.78854465 97.10088825 C-59.78854465 97.76088825 -59.78854465 98.42088825 -59.78854465 99.10088825 C-59.00479465 99.34838825 -58.22104465 99.59588825 -57.41354465 99.85088825 C-54.78854465 101.10088825 -54.78854465 101.10088825 -54.00729465 102.784482 C-52.18129384 106.25505407 -49.45058669 108.68877784 -46.66354465 111.41338825 C-46.07750462 111.99370808 -45.49146458 112.5740279 -44.88766575 113.17193317 C-41.23466723 116.76399803 -37.47357946 120.17061619 -33.56198215 123.4797945 C-30.93656703 125.87967837 -28.68851737 128.56208642 -26.42916965 131.30401325 C-22.71893478 135.36760383 -19.19048348 137.00218883 -13.78854465 138.10088825 C-6.74169267 137.84921497 -1.99135956 135.15684883 3.02395535 130.47588825 C5.9925339 126.56052052 7.26485443 121.98022956 7.21145535 117.10088825 C5.7177288 108.91472269 1.15639099 104.17932156 -4.6283884 98.49932575 C-5.50572132 97.61862415 -6.38305424 96.73792255 -7.286973 95.83053303 C-9.61403188 93.50384811 -11.95474728 91.19205235 -14.3011179 88.88488483 C-16.65414223 86.55816648 -18.97701517 84.20151045 -21.30612278 81.85088825 C-23.12013098 80.04444473 -24.93583375 78.23970096 -26.7533884 76.43682575 C-27.57886677 75.60436329 -28.40434513 74.77190083 -29.25483799 73.91421223 C-40.05664311 63.36554767 -52.29138646 56.48360242 -67.53854465 56.60088825 C-68.41107883 56.60660847 -69.28361301 56.61232868 -70.18258762 56.61822224 C-86.59737141 57.06821216 -99.71204334 66.55447476 -110.78854465 78.10088825 Z M16.21145535 139.10088825 C16.21145535 139.76088825 16.21145535 140.42088825 16.21145535 141.10088825 C15.6803616 141.30713825 15.14926785 141.51338825 14.60208035 141.72588825 C11.20372098 143.68050017 8.70089606 146.32212542 5.96145535 149.10088825 C5.13001003 149.920732 5.13001003 149.920732 4.28176785 150.75713825 C1.2192976 153.42689593 1.2192976 153.42689593 0.21145535 157.10088825 C-0.44854465 157.10088825 -1.10854465 157.10088825 -1.78854465 157.10088825 C-1.78854465 157.76088825 -1.78854465 158.42088825 -1.78854465 159.10088825 C-2.44854465 159.10088825 -3.10854465 159.10088825 -3.78854465 159.10088825 C-3.78854465 159.76088825 -3.78854465 160.42088825 -3.78854465 161.10088825 C-4.44854465 161.10088825 -5.10854465 161.10088825 -5.78854465 161.10088825 C-5.78854465 161.76088825 -5.78854465 162.42088825 -5.78854465 163.10088825 C-6.44854465 163.10088825 -7.10854465 163.10088825 -7.78854465 163.10088825 C-7.78854465 163.76088825 -7.78854465 164.42088825 -7.78854465 165.10088825 C-8.44854465 165.10088825 -9.10854465 165.10088825 -9.78854465 165.10088825 C-9.78854465 165.76088825 -9.78854465 166.42088825 -9.78854465 167.10088825 C-10.44854465 167.10088825 -11.10854465 167.10088825 -11.78854465 167.10088825 C-13.45521132 168.43422159 -13.45521132 168.43422159 -14.78854465 170.10088825 C-14.78854465 170.76088825 -14.78854465 171.42088825 -14.78854465 172.10088825 C-15.44854465 172.10088825 -16.10854465 172.10088825 -16.78854465 172.10088825 C-16.78854465 172.76088825 -16.78854465 173.42088825 -16.78854465 174.10088825 C-17.44854465 174.10088825 -18.10854465 174.10088825 -18.78854465 174.10088825 C-18.78854465 174.76088825 -18.78854465 175.42088825 -18.78854465 176.10088825 C-19.44854465 176.10088825 -20.10854465 176.10088825 -20.78854465 176.10088825 C-20.78854465 176.76088825 -20.78854465 177.42088825 -20.78854465 178.10088825 C-21.44854465 178.10088825 -22.10854465 178.10088825 -22.78854465 178.10088825 C-22.78854465 178.76088825 -22.78854465 179.42088825 -22.78854465 180.10088825 C-23.44854465 180.10088825 -24.10854465 180.10088825 -24.78854465 180.10088825 C-24.78854465 180.76088825 -24.78854465 181.42088825 -24.78854465 182.10088825 C-25.44854465 182.10088825 -26.10854465 182.10088825 -26.78854465 182.10088825 C-28.42323366 183.75537509 -28.42323366 183.75537509 -30.10104465 185.85088825 C-32.776167 189.01850174 -35.52780151 191.5318179 -38.78854465 194.10088825 C-38.78854465 194.76088825 -38.78854465 195.42088825 -38.78854465 196.10088825 C-39.44854465 196.10088825 -40.10854465 196.10088825 -40.78854465 196.10088825 C-40.78854465 196.76088825 -40.78854465 197.42088825 -40.78854465 198.10088825 C-41.44854465 198.10088825 -42.10854465 198.10088825 -42.78854465 198.10088825 C-42.78854465 198.76088825 -42.78854465 199.42088825 -42.78854465 200.10088825 C-43.44854465 200.10088825 -44.10854465 200.10088825 -44.78854465 200.10088825 C-46.95521132 201.93422159 -46.95521132 201.93422159 -48.78854465 204.10088825 C-48.78854465 204.76088825 -48.78854465 205.42088825 -48.78854465 206.10088825 C-49.44854465 206.10088825 -50.10854465 206.10088825 -50.78854465 206.10088825 C-53.45521132 208.43422159 -53.45521132 208.43422159 -55.78854465 211.10088825 C-55.78854465 211.76088825 -55.78854465 212.42088825 -55.78854465 213.10088825 C-59.49301018 214.3357101 -62.93284546 214.24647028 -66.78854465 214.22588825 C-67.51299778 214.22975544 -68.2374509 214.23362263 -68.98385715 214.237607 C-72.18137345 214.23170753 -74.73437072 214.11894623 -77.78854465 213.10088825 C-77.78854465 212.44088825 -77.78854465 211.78088825 -77.78854465 211.10088825 C-79.26127194 209.60649712 -79.26127194 209.60649712 -81.2065134 208.050107 C-86.0813637 203.90342337 -90.58880308 199.44806019 -95.10104465 194.91338825 C-96.29697239 193.7232613 -96.29697239 193.7232613 -97.51706028 192.50909138 C-98.28340794 191.74145466 -99.04975559 190.97381794 -99.8393259 190.1829195 C-100.52679905 189.49431843 -101.21427219 188.80571735 -101.92257786 188.09624958 C-103.78854465 186.10088825 -103.78854465 186.10088825 -105.41037083 183.8457613 C-106.09256687 182.98204914 -106.09256687 182.98204914 -106.78854465 182.10088825 C-107.44854465 182.10088825 -108.10854465 182.10088825 -108.78854465 182.10088825 C-108.78854465 181.44088825 -108.78854465 180.78088825 -108.78854465 180.10088825 C-109.44854465 180.10088825 -110.10854465 180.10088825 -110.78854465 180.10088825 C-110.78854465 179.44088825 -110.78854465 178.78088825 -110.78854465 178.10088825 C-116.45027892 175.10954112 -120.34628626 173.31137203 -126.78854465 175.10088825 C-133.05269207 177.26093908 -136.37478958 180.27096851 -140.60104465 185.22588825 C-142.50138045 189.82670123 -142.53840054 194.20637435 -141.78854465 199.10088825 C-140.51768398 202.10388496 -139.03643527 204.72357363 -136.78854465 207.10088825 C-136.12854465 207.10088825 -135.46854465 207.10088825 -134.78854465 207.10088825 C-134.78854465 207.76088825 -134.78854465 208.42088825 -134.78854465 209.10088825 C-133.30322281 210.60805633 -133.30322281 210.60805633 -131.3471384 212.175107 C-126.61471798 216.2003242 -122.23078037 220.51074197 -117.85104465 224.91338825 C-117.084697 225.67586872 -116.31834934 226.43834919 -115.52877903 227.22393513 C-114.80110325 227.95289997 -114.07342747 228.68186481 -113.3237009 229.4329195 C-112.66764866 230.09009968 -112.01159641 230.74727985 -111.3356638 231.42437458 C-109.78854465 233.10088825 -109.78854465 233.10088825 -108.78854465 235.10088825 C-108.12854465 235.10088825 -107.46854465 235.10088825 -106.78854465 235.10088825 C-106.78854465 235.76088825 -106.78854465 236.42088825 -106.78854465 237.10088825 C-106.12854465 237.10088825 -105.46854465 237.10088825 -104.78854465 237.10088825 C-104.78854465 237.76088825 -104.78854465 238.42088825 -104.78854465 239.10088825 C-102.82488835 240.81908752 -100.86709633 242.4075136 -98.78854465 243.97588825 C-97.89703709 244.65361286 -97.89703709 244.65361286 -96.98751926 245.34502888 C-84.16954231 254.91801452 -71.47481474 256.61540439 -55.78854465 255.10088825 C-51.41402819 254.19318118 -47.61447327 252.38719447 -43.78854465 250.10088825 C-42.73666965 249.48213825 -41.68479465 248.86338825 -40.60104465 248.22588825 C-39.67291965 247.52463825 -38.74479465 246.82338825 -37.78854465 246.10088825 C-37.01123997 245.5285445 -36.23393528 244.95620075 -35.4330759 244.36651325 C-32.0293793 241.83292933 -32.0293793 241.83292933 -28.78854465 239.10088825 C-28.78854465 238.44088825 -28.78854465 237.78088825 -28.78854465 237.10088825 C-28.12854465 237.10088825 -27.46854465 237.10088825 -26.78854465 237.10088825 C-26.78854465 236.44088825 -26.78854465 235.78088825 -26.78854465 235.10088825 C-26.12854465 235.10088825 -25.46854465 235.10088825 -24.78854465 235.10088825 C-23.11976744 233.41283193 -23.11976744 233.41283193 -21.41354465 231.28838825 C-19.55288183 229.03837969 -17.91981762 227.1973854 -15.56198215 225.4641695 C-14.97674778 225.01428669 -14.3915134 224.56440388 -13.78854465 224.10088825 C-13.78854465 223.44088825 -13.78854465 222.78088825 -13.78854465 222.10088825 C-13.12854465 222.10088825 -12.46854465 222.10088825 -11.78854465 222.10088825 C-10.07745777 220.47985857 -8.4160116 218.80585362 -6.78854465 217.10088825 C-5.64385715 216.01807575 -5.64385715 216.01807575 -4.47604465 214.91338825 C-2.56140515 213.26966553 -2.56140515 213.26966553 -2.78854465 211.10088825 C-2.12854465 211.10088825 -1.46854465 211.10088825 -0.78854465 211.10088825 C-0.78854465 210.44088825 -0.78854465 209.78088825 -0.78854465 209.10088825 C-0.12854465 209.10088825 0.53145535 209.10088825 1.21145535 209.10088825 C3.87812201 206.76755492 3.87812201 206.76755492 6.21145535 204.10088825 C6.21145535 203.44088825 6.21145535 202.78088825 6.21145535 202.10088825 C6.87145535 202.10088825 7.53145535 202.10088825 8.21145535 202.10088825 C8.21145535 201.44088825 8.21145535 200.78088825 8.21145535 200.10088825 C8.87145535 200.10088825 9.53145535 200.10088825 10.21145535 200.10088825 C10.21145535 199.44088825 10.21145535 198.78088825 10.21145535 198.10088825 C10.87145535 198.10088825 11.53145535 198.10088825 12.21145535 198.10088825 C12.21145535 197.44088825 12.21145535 196.78088825 12.21145535 196.10088825 C12.87145535 196.10088825 13.53145535 196.10088825 14.21145535 196.10088825 C14.21145535 195.44088825 14.21145535 194.78088825 14.21145535 194.10088825 C14.87145535 194.10088825 15.53145535 194.10088825 16.21145535 194.10088825 C16.21145535 193.44088825 16.21145535 192.78088825 16.21145535 192.10088825 C16.87145535 192.10088825 17.53145535 192.10088825 18.21145535 192.10088825 C18.21145535 191.44088825 18.21145535 190.78088825 18.21145535 190.10088825 C18.87145535 190.10088825 19.53145535 190.10088825 20.21145535 190.10088825 C20.21145535 189.44088825 20.21145535 188.78088825 20.21145535 188.10088825 C20.87145535 188.10088825 21.53145535 188.10088825 22.21145535 188.10088825 C22.21145535 187.44088825 22.21145535 186.78088825 22.21145535 186.10088825 C22.87145535 186.10088825 23.53145535 186.10088825 24.21145535 186.10088825 C24.21145535 185.44088825 24.21145535 184.78088825 24.21145535 184.10088825 C24.7837991 183.85338825 25.35614285 183.60588825 25.94583035 183.35088825 C28.56156146 181.90772626 30.3591899 180.21872603 32.46145535 178.10088825 C33.1678616 177.39963825 33.87426785 176.69838825 34.60208035 175.97588825 C36.42855934 174.25978058 36.42855934 174.25978058 36.21145535 172.10088825 C38.19145535 171.11088825 38.19145535 171.11088825 40.21145535 170.10088825 C40.21145535 169.44088825 40.21145535 168.78088825 40.21145535 168.10088825 C40.76833035 167.91526325 41.32520535 167.72963825 41.89895535 167.53838825 C45.40086784 165.36152373 47.56952366 162.83078818 49.21145535 159.10088825 C50.44945669 151.93816617 49.65377866 146.40387969 45.50051785 140.42901325 C45.07512722 139.990732 44.6497366 139.55245075 44.21145535 139.10088825 C43.55145535 139.10088825 42.89145535 139.10088825 42.21145535 139.10088825 C42.21145535 138.44088825 42.21145535 137.78088825 42.21145535 137.10088825 C32.24536682 132.51648753 25.3728717 132.51612025 16.21145535 139.10088825 Z " fill="#047CFC" transform="translate(317.7885446548462,94.8991117477417)"/>
<path d="M0 0 C0.33 0 0.66 0 1 0 C1.33 72.27 1.66 144.54 2 219 C3.32 219.33 4.64 219.66 6 220 C7.3125 221.6875 7.3125 221.6875 8 224 C7.67966043 226.00212229 7.34740923 228.00239695 7 230 C7.66 230.66 8.32 231.32 9 232 C8.625 234.125 8.625 234.125 8 236 C8.99 236.33 9.98 236.66 11 237 C11.33 237.66 11.66 238.32 12 239 C12.99 239 13.98 239 15 239 C15.66 240.32 16.32 241.64 17 243 C17.66 243 18.32 243 19 243 C19 243.66 19 244.32 19 245 C19.99 245 20.98 245 22 245 C22 244.34 22 243.68 22 243 C22.66 243 23.32 243 24 243 C23.34 245.97 22.68 248.94 22 252 C23.093125 251.814375 24.18625 251.62875 25.3125 251.4375 C29 251 29 251 32 252 C31.34 252.66 30.68 253.32 30 254 C30.66 254.66 31.32 255.32 32 256 C31.67 256.66 31.34 257.32 31 258 C31.66386719 258.04898437 32.32773438 258.09796875 33.01171875 258.1484375 C33.89472656 258.22320312 34.77773437 258.29796875 35.6875 258.375 C36.55761719 258.44460938 37.42773438 258.51421875 38.32421875 258.5859375 C41 259 41 259 43.28575134 260.00970459 C46.39374978 261.14365987 48.79976772 261.25383167 52.10375977 261.25878906 C53.91572594 261.26824554 53.91572594 261.26824554 55.76429749 261.27789307 C57.06024338 261.2738446 58.35618927 261.26979614 59.69140625 261.265625 C61.04231333 261.26697336 62.39321994 261.26891531 63.74412537 261.27142334 C66.56929159 261.27436558 69.39433099 261.27010537 72.21948242 261.26074219 C75.83652345 261.2493371 79.45326798 261.2559193 83.07029819 261.26788712 C85.85758185 261.27512076 88.64479543 261.27281109 91.43208122 261.26763153 C93.41293913 261.26565343 95.39379979 261.27171466 97.37464905 261.27789307 C98.57947433 261.27158875 99.78429962 261.26528442 101.02563477 261.25878906 C102.08532974 261.25719788 103.14502472 261.25560669 104.23683167 261.25396729 C106.99774937 261.00020686 108.64832893 260.42237262 111 259 C111.33 259.66 111.66 260.32 112 261 C133.77144345 262.05003916 155.54158806 262.29943769 177.33380127 262.53222656 C182.0480847 262.58335784 186.76232059 262.63855488 191.4765625 262.69335938 C200.65100064 262.79944103 209.82548086 262.90118887 219 263 C219 263.33 219 263.66 219 264 C200.08281633 265.05851228 181.20580326 265.10799139 162.26850224 264.99825954 C159.79852049 264.98420656 157.32853532 264.97163405 154.8585434 264.9595108 C146.20806114 264.91682067 137.55764085 264.8676897 128.90722656 264.81298828 C120.89084937 264.76249223 112.8744995 264.72739902 104.85801625 264.69905448 C97.92059898 264.67377362 90.98329905 264.63715383 84.04598308 264.59196877 C79.92563758 264.56535154 75.80539601 264.54326015 71.68497467 264.53295135 C67.82024594 264.52294446 63.9558538 264.49872368 60.09127045 264.46401787 C58.68371848 264.453722 57.27611989 264.44830845 55.86853027 264.44845009 C44.26117953 264.4448452 33.65308916 263.33623514 23.75 256.9375 C22.65171875 256.24527344 21.5534375 255.55304688 20.421875 254.83984375 C19.62265625 254.23269531 18.8234375 253.62554687 18 253 C18 252.34 18 251.68 18 251 C16.68 250.34 15.36 249.68 14 249 C14 248.34 14 247.68 14 247 C13.34 247 12.68 247 12 247 C11.01 244.525 11.01 244.525 10 242 C9.34 242 8.68 242 8 242 C7.04375312 240.42791775 6.11130088 238.84136502 5.1875 237.25 C4.40439453 235.92742187 4.40439453 235.92742187 3.60546875 234.578125 C-1.7649806 222.60894834 -1.41791938 210.59312807 -1.35644531 197.74951172 C-1.35723725 195.61308203 -1.35933778 193.4766525 -1.36264038 191.34022522 C-1.36774933 185.57025478 -1.35429254 179.80046439 -1.33711338 174.03052282 C-1.32202757 167.98699745 -1.32325036 161.94347391 -1.32244873 155.89993286 C-1.31876387 145.76398663 -1.30383001 135.62810844 -1.28125 125.4921875 C-1.25229746 112.4689086 -1.24201826 99.44568422 -1.2375679 86.42237663 C-1.23359434 75.22779499 -1.22109821 64.03322526 -1.20722103 52.83865213 C-1.20311852 49.23649911 -1.20019488 45.6343465 -1.19742584 42.03219223 C-1.19254451 36.38671425 -1.18236095 30.74126958 -1.16798782 25.09580803 C-1.16345429 23.01966719 -1.16062368 20.94352186 -1.15958023 18.86737633 C-1.15784234 16.04418999 -1.14998049 13.22108785 -1.14044189 10.3979187 C-1.14130838 9.56759404 -1.14217486 8.73726938 -1.1430676 7.88178337 C-1.11420911 2.22841821 -1.11420911 2.22841821 0 0 Z " fill="#1545CA" transform="translate(96,141)"/>
<path d="M0 0 C13.58043093 1.48917982 24.63129048 4.93553067 35 14 C35.928125 14.70125 36.85625 15.4025 37.8125 16.125 C40.2628759 18.2253222 42.16294267 20.34647274 44 23 C44 23.99 44 24.98 44 26 C44.66 26 45.32 26 46 26 C53.36038586 40.25529278 54.44464087 53.74873277 54.29296875 69.4296875 C54.28735803 71.15845365 54.28309493 72.88722464 54.28010559 74.61599731 C54.26877278 79.11718434 54.2394085 83.61807062 54.20599365 88.11914062 C54.17504011 92.73172948 54.1615468 97.34436798 54.14648438 101.95703125 C54.11452499 110.97148469 54.06347276 119.98571712 54 129 C53.34 129 52.68 129 52 129 C52 150.12 52 171.24 52 193 C51.67 193 51.34 193 51 193 C50.505 119.74 50.505 119.74 50 45 C49.67 45 49.34 45 49 45 C48.34 41.04 47.68 37.08 47 33 C46.34 33 45.68 33 45 33 C44.34 30.69 43.68 28.38 43 26 C42.34 26 41.68 26 41 26 C41 25.34 41 24.68 41 24 C40.34 24 39.68 24 39 24 C39 23.01 39 22.02 39 21 C38.01 21 37.02 21 36 21 C36 20.01 36 19.02 36 18 C35.34 18 34.68 18 34 18 C32.375 16.5 32.375 16.5 31 15 C30.01 15.495 30.01 15.495 29 16 C28.34 16.33 27.68 16.66 27 17 C26.67 14.69 26.34 12.38 26 10 C23.36 9.67 20.72 9.34 18 9 C18 8.34 18 7.68 18 7 C17.01 6.67 16.02 6.34 15 6 C15 5.34 15 4.68 15 4 C10.05 4 5.1 4 0 4 C0 2.68 0 1.36 0 0 Z " fill="#0BA5F5" transform="translate(352,95)"/>
<path d="M0 0 C0 0.33 0 0.66 0 1 C-1.5897379 1.00496522 -1.5897379 1.00496522 -3.21159172 1.01003075 C-28.96563248 1.09092256 -54.71961306 1.18320641 -80.47356987 1.28752708 C-92.9278426 1.33770975 -105.38210856 1.3841519 -117.83642578 1.421875 C-128.68799815 1.45475291 -139.53951884 1.49456063 -150.39103425 1.54279006 C-156.14008061 1.56809695 -161.8890925 1.58986574 -167.63817978 1.60334396 C-173.04387652 1.61612643 -178.44945529 1.63813917 -183.85508728 1.66738319 C-185.84412998 1.67648895 -187.8331917 1.68215613 -189.82225418 1.68421364 C-192.52794997 1.68751511 -195.23330692 1.70293451 -197.93893433 1.7215271 C-198.73464399 1.71959237 -199.53035366 1.71765763 -200.35017574 1.71566427 C-204.63808912 1.60379748 -204.63808912 1.60379748 -208 4 C-213.25962814 5.72133285 -217.25302416 6.13008416 -222.6875 5.5 C-223.49574219 5.4071875 -224.30398437 5.314375 -225.13671875 5.21875 C-225.75160156 5.1465625 -226.36648437 5.074375 -227 5 C-220.28645687 1.54194654 -214.0085566 -0.11504496 -206.48855591 -0.16494751 C-205.50918353 -0.17341282 -205.50918353 -0.17341282 -204.51002586 -0.18204916 C-202.32195823 -0.19974448 -200.13391285 -0.21046395 -197.94580078 -0.22119141 C-196.37454442 -0.23241359 -194.80329093 -0.24404612 -193.23204041 -0.25605774 C-188.95042103 -0.28744057 -184.66878591 -0.3125642 -180.38711786 -0.3362546 C-176.78005771 -0.35676742 -173.17301967 -0.38029236 -169.56597793 -0.40379179 C-161.00234176 -0.45951797 -152.43868568 -0.51015735 -143.875 -0.55761719 C-136.11681975 -0.60068436 -128.35869784 -0.64913849 -120.60058594 -0.703125 C-37.40771962 -1.2803279 -37.40771962 -1.2803279 0 0 Z " fill="#198BD9" transform="translate(352,96)"/>
<path d="M0 0 C13.58043093 1.48917982 24.63129048 4.93553067 35 14 C35.928125 14.70125 36.85625 15.4025 37.8125 16.125 C40.2628759 18.2253222 42.16294267 20.34647274 44 23 C44 23.99 44 24.98 44 26 C44.66 26 45.32 26 46 26 C49.44370445 32.91369673 51.88667981 39.33969244 53 47 C52.34 47 51.68 47 51 47 C48.37548383 44.37548383 48.4167132 42.5122172 47.875 38.875 C47.62363281 37.23144531 47.62363281 37.23144531 47.3671875 35.5546875 C47.24601562 34.71164063 47.12484375 33.86859375 47 33 C46.34 33 45.68 33 45 33 C44.34 30.69 43.68 28.38 43 26 C42.34 26 41.68 26 41 26 C41 25.34 41 24.68 41 24 C40.34 24 39.68 24 39 24 C39 23.01 39 22.02 39 21 C38.01 21 37.02 21 36 21 C36 20.01 36 19.02 36 18 C35.34 18 34.68 18 34 18 C32.375 16.5 32.375 16.5 31 15 C30.01 15.495 30.01 15.495 29 16 C28.34 16.33 27.68 16.66 27 17 C26.67 14.69 26.34 12.38 26 10 C23.36 9.67 20.72 9.34 18 9 C18 8.34 18 7.68 18 7 C17.01 6.67 16.02 6.34 15 6 C15 5.34 15 4.68 15 4 C10.05 4 5.1 4 0 4 C0 2.68 0 1.36 0 0 Z " fill="#45C3EE" transform="translate(352,95)"/>
<path d="M0 0 C2 2 2 2 2.0546875 4.828125 C1.99539062 5.95734375 1.93609375 7.0865625 1.875 8.25 C1.75982924 14.04052994 2.25259754 16.6670659 6 21 C6 21.66 6 22.32 6 23 C6.66 23 7.32 23 8 23 C8 23.66 8 24.32 8 25 C8.55268555 25.22816406 9.10537109 25.45632813 9.67480469 25.69140625 C12.67246403 27.37845518 14.7676506 29.50812518 17.203125 31.9375 C17.6857782 32.41823975 18.1684314 32.89897949 18.66571045 33.39428711 C19.67999064 34.40721093 20.69176804 35.42264638 21.70117188 36.44042969 C23.25171972 38.00173165 24.81270503 39.55202497 26.375 41.1015625 C27.36001734 42.08790061 28.34441453 43.0748585 29.328125 44.0625 C30.2243457 44.96097656 31.12056641 45.85945313 32.04394531 46.78515625 C34 49 34 49 34 51 C34.66 51 35.32 51 36 51 C36 51.66 36 52.32 36 53 C36.66 53 37.32 53 38 53 C38 53.66 38 54.32 38 55 C39.32 55.66 40.64 56.32 42 57 C42 57.99 42 58.98 42 60 C39.525 60.495 39.525 60.495 37 61 C37 60.01 37 59.02 37 58 C36.37400383 56.31763529 35.71247732 54.6476038 35 53 C33.02 53 31.04 53 29 53 C29 51.68 29 50.36 29 49 C28.34 48.67 27.68 48.34 27 48 C26.67 48.66 26.34 49.32 26 50 C26 48 26 46 26 44 C25.34 44 24.68 44 24 44 C22.4921875 42.5390625 22.4921875 42.5390625 20.875 40.625 C20.33617187 39.99851562 19.79734375 39.37203125 19.2421875 38.7265625 C18 37 18 37 18 35 C16.68 34.67 15.36 34.34 14 34 C14 33.01 14 32.02 14 31 C12.35 31 10.7 31 9 31 C7.5393715 28.35261084 7 27.10551666 7 24 C6.39671875 23.74476563 5.7934375 23.48953125 5.171875 23.2265625 C1.45906799 21.12976142 -0.30601117 17.83340898 -2 14 C-2.9144319 9.04913637 -1.85087977 4.62719943 0 0 Z " fill="#387AE0" transform="translate(175,279)"/>
<path d="M0 0 C1.32 0 2.64 0 4 0 C4 0.99 4 1.98 4 3 C5.32 3.33 6.64 3.66 8 4 C8 4.99 8 5.98 8 7 C9.32 7 10.64 7 12 7 C12 7.99 12 8.98 12 10 C12.66 10 13.32 10 14 10 C14 10.66 14 11.32 14 12 C14.5775 12.061875 15.155 12.12375 15.75 12.1875 C18.98382021 13.35526841 20.13065894 15.16375839 22 18 C22.75 20.8125 22.75 20.8125 23 23 C23.66 23 24.32 23 25 23 C26.69895415 26.70129297 27.27218737 29.62166396 27.25 33.6875 C27.25515625 34.64011719 27.2603125 35.59273437 27.265625 36.57421875 C27 39 27 39 25 41 C25.29369827 42.34262065 25.6278958 43.67696283 26 45 C25.67 45.66 25.34 46.32 25 47 C22.4375 47.625 22.4375 47.625 20 48 C19.67 47.01 19.34 46.02 19 45 C19.61875 44.113125 20.2375 43.22625 20.875 42.3125 C23.72314022 37.87275201 24.43239191 34.13714946 23.72558594 29.0090332 C21.63339118 21.13747329 16.0719548 16.42988442 10.3125 11 C8.36663926 9.1295749 6.42800262 7.25180425 4.48828125 5.375 C3.62759033 4.55773437 2.76689941 3.74046875 1.88012695 2.8984375 C0 1 0 1 0 0 Z " fill="#4BABEC" transform="translate(300,181)"/>
<path d="M0 0 C0 0.99 0 1.98 0 3 C-0.66 3.66 -1.32 4.32 -2 5 C-2.71408334 6.98356483 -3.38617742 8.98315437 -4 11 C-5.65 11.33 -7.3 11.66 -9 12 C-8.67 12.99 -8.34 13.98 -8 15 C-7.87218214 17.67394964 -7.95608129 20.32095857 -8 23 C-8.99 22.67 -9.98 22.34 -11 22 C-15.77577612 22.49404581 -19.70093422 25.70093422 -23 29 C-23.4609375 26.4921875 -23.4609375 26.4921875 -23 23 C-20.86300994 20.04284318 -18.27528108 17.62052014 -15.625 15.125 C-14.92632812 14.43664062 -14.22765625 13.74828125 -13.5078125 13.0390625 C-8.30877976 8 -8.30877976 8 -6 8 C-6 7.34 -6 6.68 -6 6 C-5.34 6 -4.68 6 -4 6 C-3.566875 5.071875 -3.566875 5.071875 -3.125 4.125 C-2 2 -2 2 0 0 Z " fill="#136EF5" transform="translate(200,233)"/>
<path d="M0 0 C0.96932858 4.86972213 1.15120386 9.49807249 1.125 14.4375 C1.13080078 15.52514648 1.13080078 15.52514648 1.13671875 16.63476562 C1.12853408 21.18953626 0.74598339 25.50633814 0 30 C-0.66 30 -1.32 30 -2 30 C-3.2065625 31.2375 -3.2065625 31.2375 -4.4375 32.5 C-7 35 -7 35 -10 35 C-10.226875 35.721875 -10.45375 36.44375 -10.6875 37.1875 C-12.26335128 40.56432417 -14.20876616 42.55767039 -17 45 C-17.66 45 -18.32 45 -19 45 C-19 45.66 -19 46.32 -19 47 C-20.32 46.67 -21.64 46.34 -23 46 C-22.40832031 45.41992188 -21.81664062 44.83984375 -21.20703125 44.2421875 C-16.03718992 39.17316848 -16.03718992 39.17316848 -11.25 33.75 C-8.983759 30.98014989 -6.52852363 28.52852363 -4 26 C-0.25384234 21.87471314 -0.51199165 18.36467552 -0.63671875 12.98828125 C-1.25833773 7.87496381 -3.35649826 4.64350174 -7 1 C-2.25 0 -2.25 0 0 0 Z " fill="#2F99EB" transform="translate(367,232)"/>
<path d="M0 0 C2.97 0.495 2.97 0.495 6 1 C6 1.66 6 2.32 6 3 C4.28515625 4.65625 4.28515625 4.65625 2.0625 6.5 C-0.92045179 8.88926999 -0.92045179 8.88926999 -3 12 C-3.66 12 -4.32 12 -5 12 C-5.309375 12.94875 -5.61875 13.8975 -5.9375 14.875 C-7 18 -7 18 -8 20 C-8.67127026 25.63867017 -6.67043178 29.23826622 -4 34 C-3.67 34.66 -3.34 35.32 -3 36 C-4.98 35.34 -6.96 34.68 -9 34 C-9.53132389 31.41842632 -10.05034379 28.83538244 -10.5625 26.25 C-10.71396484 25.52039063 -10.86542969 24.79078125 -11.02148438 24.0390625 C-12.1503778 18.26332871 -11.73498778 15.10531053 -9 10 C-8.67 10.33 -8.34 10.66 -8 11 C-7.67 10.34 -7.34 9.68 -7 9 C-6.34 9 -5.68 9 -5 9 C-4.34 7.68 -3.68 6.36 -3 5 C-2.34 5 -1.68 5 -1 5 C-0.67 3.35 -0.34 1.7 0 0 Z " fill="#256AEC" transform="translate(140,233)"/>
<path d="M0 0 C1.03290161 0.43397095 1.03290161 0.43397095 2.08666992 0.87670898 C1.65354492 1.28920898 1.22041992 1.70170898 0.77416992 2.12670898 C-0.97274684 3.93832636 -2.41524169 5.85754638 -3.91333008 7.87670898 C-4.57333008 8.53670898 -5.23333008 9.19670898 -5.91333008 9.87670898 C-6.57333008 9.54670898 -7.23333008 9.21670898 -7.91333008 8.87670898 C-8.20208008 9.66045898 -8.49083008 10.44420898 -8.78833008 11.25170898 C-9.91333008 13.87670898 -9.91333008 13.87670898 -11.91333008 15.87670898 C-12.71770508 16.16545898 -13.52208008 16.45420898 -14.35083008 16.75170898 C-17.25547122 18.02691729 -18.13045204 19.32974035 -19.91333008 21.87670898 C-20.57333008 21.87670898 -21.23333008 21.87670898 -21.91333008 21.87670898 C-21.91333008 22.53670898 -21.91333008 23.19670898 -21.91333008 23.87670898 C-24.72583008 26.56420898 -24.72583008 26.56420898 -27.91333008 28.87670898 C-28.90333008 28.54670898 -29.89333008 28.21670898 -30.91333008 27.87670898 C-27.03645778 23.85164692 -23.14037267 19.84660422 -19.22509766 15.85888672 C-17.89572229 14.49931672 -16.57177885 13.13441344 -15.25341797 11.76416016 C-13.358487 9.79653909 -11.44491352 7.84886111 -9.52661133 5.90405273 C-8.93995193 5.28642563 -8.35329254 4.66879852 -7.74885559 4.03245544 C-3.56875343 -0.15102828 -3.56875343 -0.15102828 0 0 Z " fill="#4797EC" transform="translate(238.913330078125,197.123291015625)"/>
<path d="M0 0 C0 0.66 0 1.32 0 2 C0.99 2.33 1.98 2.66 3 3 C2.67 4.32 2.34 5.64 2 7 C0.02 7.33 -1.96 7.66 -4 8 C-4.33 9.32 -4.66 10.64 -5 12 C-5.7425 11.95875 -6.485 11.9175 -7.25 11.875 C-9.94293365 11.79402705 -9.94293365 11.79402705 -11.8125 13 C-14.58972163 14.26958703 -16.71106446 14.19735561 -19.75 14.125 C-20.73484375 14.10695313 -21.7196875 14.08890625 -22.734375 14.0703125 C-23.85585937 14.03550781 -23.85585937 14.03550781 -25 14 C-25.33 13.34 -25.66 12.68 -26 12 C-24.2365625 11.814375 -24.2365625 11.814375 -22.4375 11.625 C-18.45879574 11.13564065 -14.82233441 10.1944795 -11 9 C-11 8.34 -11 7.68 -11 7 C-9.35546875 5.2734375 -9.35546875 5.2734375 -7.1875 3.375 C-6.47980469 2.74335938 -5.77210938 2.11171875 -5.04296875 1.4609375 C-3 0 -3 0 0 0 Z " fill="#3371EA" transform="translate(173,263)"/>
<path d="M0 0 C-1.74906531 0.64836042 -3.49929219 1.29358784 -5.25 1.9375 C-6.22453125 2.29714844 -7.1990625 2.65679687 -8.203125 3.02734375 C-24.75787583 8.78451268 -43.93279595 5.42299272 -61 4 C-61 3.67 -61 3.34 -61 3 C-56.69524355 2.8314932 -52.39028252 2.67103485 -48.08496094 2.51782227 C-46.62231505 2.46466158 -45.15974545 2.40935489 -43.69726562 2.35180664 C-41.58740686 2.26916571 -39.47738849 2.1944087 -37.3671875 2.12109375 C-36.09987793 2.0739624 -34.83256836 2.02683105 -33.52685547 1.97827148 C-30.21750218 1.99866 -27.24380139 2.3888234 -24 3 C-17.51452969 2.95754193 -11.50534271 1.45491325 -5.34765625 -0.4765625 C-3 -1 -3 -1 0 0 Z " fill="#0B69EA" transform="translate(377,400)"/>
<path d="M0 0 C0.20124423 8.41502925 0.3848294 16.83018851 0.54658794 25.24606037 C0.62225873 29.15492719 0.70374695 33.06348301 0.79907227 36.97192383 C0.89104051 40.75186898 0.96701931 44.53184359 1.03244972 48.31233788 C1.05997692 49.74635776 1.09302654 51.18028385 1.13199425 52.61403847 C1.36090788 61.19149007 0.8691516 68.83152131 -2 77 C-2.33 77 -2.66 77 -3 77 C-3.02688151 75.35425434 -3.04634123 73.70838587 -3.0625 72.0625 C-3.07410156 71.14597656 -3.08570313 70.22945313 -3.09765625 69.28515625 C-3 67 -3 67 -2 66 C-1.89880718 62.92087441 -1.86031673 59.86464501 -1.8671875 56.78515625 C-1.86575241 55.39604286 -1.86575241 55.39604286 -1.86428833 53.97886658 C-1.86360638 52.01593966 -1.86546168 50.0530105 -1.86962891 48.09008789 C-1.87497093 45.07888737 -1.86968753 42.06783643 -1.86328125 39.05664062 C-1.86394215 37.1536455 -1.86522355 35.25065047 -1.8671875 33.34765625 C-1.86516327 32.44241714 -1.86313904 31.53717804 -1.86105347 30.60450745 C-1.86578171 29.3482682 -1.86578171 29.3482682 -1.87060547 28.06665039 C-1.87140106 27.32798233 -1.87219666 26.58931427 -1.87301636 25.82826233 C-1.88922356 23.90141554 -1.88922356 23.90141554 -3 22 C-2.34 22 -1.68 22 -1 22 C-1.56739868 17.87026372 -1.56739868 17.87026372 -3 14 C-2.67 13.34 -2.34 12.68 -2 12 C-1.95977609 9.6670134 -1.95679753 7.33293334 -2 5 C-2.66 4.67 -3.32 4.34 -4 4 C-3.67 3.01 -3.34 2.02 -3 1 C-1 0 -1 0 0 0 Z " fill="#0990F9" transform="translate(404,296)"/>
<path d="M0 0 C1.32 0 2.64 0 4 0 C4 0.66 4 1.32 4 2 C4.66 2.33 5.32 2.66 6 3 C6.33 2.34 6.66 1.68 7 1 C8.155 1.165 9.31 1.33 10.5 1.5 C14.7036758 2.03012608 18.76541582 2.07177261 23 2 C26 2 26 2 28 3 C28.33 2.01 28.66 1.02 29 0 C29.495 0.99 29.495 0.99 30 2 C31.46759766 1.98259766 31.46759766 1.98259766 32.96484375 1.96484375 C40.0552013 1.9160409 46.96459222 2.01257435 54 3 C54 3.33 54 3.66 54 4 C33.54 4 13.08 4 -8 4 C-5.34601922 2.23067948 -3.9651626 1.69187127 -1 1 C-0.67 0.67 -0.34 0.34 0 0 Z " fill="#0C61F6" transform="translate(242,400)"/>
<path d="M0 0 C1.32 0 2.64 0 4 0 C2.63757574 3.06713244 1.10300295 5.11840293 -1.3125 7.4375 C-1.93769531 8.0459375 -2.56289062 8.654375 -3.20703125 9.28125 C-3.79871094 9.8484375 -4.39039063 10.415625 -5 11 C-9.24317037 15.13709111 -13.13584022 19.51222942 -17 24 C-17.66 23.67 -18.32 23.34 -19 23 C-18.67 21.35 -18.34 19.7 -18 18 C-18.66 18 -19.32 18 -20 18 C-20 17.34 -20 16.68 -20 16 C-16.846632 15.29925156 -14.27275026 15 -11 15 C-11 13.68 -11 12.36 -11 11 C-10.34 11 -9.68 11 -9 11 C-9 10.34 -9 9.68 -9 9 C-8.01 8.67 -7.02 8.34 -6 8 C-5.67 7.01 -5.34 6.02 -5 5 C-4.01 5 -3.02 5 -2 5 C-2 4.01 -2 3.02 -2 2 C-1.34 1.34 -0.68 0.68 0 0 Z " fill="#3484EC" transform="translate(182,193)"/>
<path d="M0 0 C0.66 0.66 1.32 1.32 2 2 C4.71615864 2.37207354 4.71615864 2.37207354 7.8828125 2.4140625 C9.04941406 2.45273437 10.21601563 2.49140625 11.41796875 2.53125 C13.25294922 2.57765625 13.25294922 2.57765625 15.125 2.625 C16.35605469 2.66367187 17.58710938 2.70234375 18.85546875 2.7421875 C21.90349376 2.8366999 24.95150862 2.92225494 28 3 C28 3.33 28 3.66 28 4 C-0.71 4 -29.42 4 -59 4 C-59 3.67 -59 3.34 -59 3 C-57.95763435 2.98786972 -57.95763435 2.98786972 -56.89421082 2.97549438 C-50.34630457 2.89756343 -43.79859775 2.81027747 -37.25095654 2.71247292 C-33.88471284 2.66252038 -30.51850037 2.61619053 -27.15209961 2.578125 C-23.2822002 2.53257165 -19.41265975 2.47456059 -15.54296875 2.4140625 C-14.33352097 2.40251129 -13.12407318 2.39096008 -11.87797546 2.37905884 C-10.19657219 2.3492543 -10.19657219 2.3492543 -8.48120117 2.31884766 C-7.49302902 2.30552399 -6.50485687 2.29220032 -5.48674011 2.2784729 C-2.74981189 2.16446074 -2.74981189 2.16446074 0 0 Z " fill="#144BE3" transform="translate(206,400)"/>
<path d="M0 0 C21.34007353 2.34007353 21.34007353 2.34007353 28 9 C28 9.99 28 10.98 28 12 C29.32 12.33 30.64 12.66 32 13 C30.73577236 15.52845528 29.47154472 15.76422764 27 17 C26.67 14.69 26.34 12.38 26 10 C23.36 9.67 20.72 9.34 18 9 C18 8.34 18 7.68 18 7 C17.01 6.67 16.02 6.34 15 6 C15 5.34 15 4.68 15 4 C10.05 4 5.1 4 0 4 C0 2.68 0 1.36 0 0 Z " fill="#23BDF2" transform="translate(352,95)"/>
<path d="M0 0 C5.94 0.99 5.94 0.99 12 2 C11.67 2.99 11.34 3.98 11 5 C11.60585937 5.03738281 12.21171875 5.07476562 12.8359375 5.11328125 C19.21861694 5.6140761 24.94216368 6.95064686 31 9 C30.67 9.66 30.34 10.32 30 11 C18.64882447 11.77394379 8.92989166 7.85562549 0 1 C0 0.67 0 0.34 0 0 Z " fill="#2D53DE" transform="translate(116,394)"/>
<path d="M0 0 C0 3 0 3 -1.4375 4.6875 C-6.61354606 7.33864554 -12.49337824 6.20457351 -18 5 C-18.33 5.33 -18.66 5.66 -19 6 C-24.52941176 6.23529412 -24.52941176 6.23529412 -27 5 C-26.67 3.68 -26.34 2.36 -26 1 C-24.35425434 0.97311849 -22.70838587 0.95365877 -21.0625 0.9375 C-20.14597656 0.92589844 -19.22945312 0.91429687 -18.28515625 0.90234375 C-16 1 -16 1 -15 2 C-13.23252271 2.12562235 -11.45939708 2.17576558 -9.6875 2.1875 C-8.72199219 2.20167969 -7.75648438 2.21585937 -6.76171875 2.23046875 C-3.98480842 1.99873224 -2.36526859 1.42140844 0 0 Z " fill="#085CF6" transform="translate(163,274)"/>
<path d="M0 0 C0.66 0.33 1.32 0.66 2 1 C0.43614315 5.69157054 -1.64076999 8.67293312 -6 11.125 C-6.66 11.41375 -7.32 11.7025 -8 12 C-8.70125 12.37125 -9.4025 12.7425 -10.125 13.125 C-12 14 -12 14 -14 14 C-14.33 14.99 -14.66 15.98 -15 17 C-16.65 17 -18.3 17 -20 17 C-20 16.34 -20 15.68 -20 15 C-20.99 14.67 -21.98 14.34 -23 14 C-22.34773438 13.75765625 -21.69546875 13.5153125 -21.0234375 13.265625 C-12.77474326 10.10240892 -6.57085812 5.83212259 0 0 Z " fill="#3582EE" transform="translate(287,334)"/>
<path d="M0 0 C0.66 0 1.32 0 2 0 C2.84576233 7.08716276 3.14765061 14.06128279 3.1328125 21.1953125 C3.13376923 22.22759979 3.13472595 23.25988708 3.13571167 24.32345581 C3.1363877 26.48988914 3.13457399 28.65632455 3.13037109 30.82275391 C3.12500363 34.12276786 3.13034145 37.42264641 3.13671875 40.72265625 C3.13605808 42.83854196 3.13477715 44.95442759 3.1328125 47.0703125 C3.13483673 48.04759308 3.13686096 49.02487366 3.13894653 50.0317688 C3.12055393 55.44724577 2.79432183 60.64168007 2 66 C1.67 66 1.34 66 1 66 C0.98969254 65.25497726 0.97938507 64.50995453 0.96876526 63.74235535 C0.87081592 56.72361117 0.76830508 49.70495195 0.66066074 42.68635082 C0.60548 39.0779594 0.5520678 35.46955979 0.50268555 31.86108398 C0.45497039 28.37916857 0.40262508 24.89735081 0.34705925 21.41555214 C0.31673963 19.43969447 0.29122425 17.46376498 0.26576233 15.48783875 C0.24581711 14.28682022 0.22587189 13.0858017 0.20532227 11.84838867 C0.18977798 10.78915695 0.1742337 9.72992523 0.15821838 8.63859558 C0.10776932 5.89184665 0.10776932 5.89184665 -1 3 C-0.67 2.01 -0.34 1.02 0 0 Z " fill="#0EA0E4" transform="translate(403,142)"/>
<path d="M0 0 C0.66 0 1.32 0 2 0 C2 0.66 2 1.32 2 2 C2.99 2 3.98 2 5 2 C5 1.34 5 0.68 5 0 C5.66 0 6.32 0 7 0 C6.34 2.97 5.68 5.94 5 9 C6.093125 8.814375 7.18625 8.62875 8.3125 8.4375 C12 8 12 8 15 9 C13.9375 10.5625 13.9375 10.5625 12 12 C8.5625 11.75 8.5625 11.75 5 11 C4.2575 10.95875 3.515 10.9175 2.75 10.875 C1 10 1 10 -0.875 6.625 C-1.24625 5.42875 -1.6175 4.2325 -2 3 C-1.34 2.01 -0.68 1.02 0 0 Z " fill="#0940ED" transform="translate(113,384)"/>
<path d="M0 0 C1.13199353 0.9080162 2.25532363 1.82683826 3.375 2.75 C4.00148437 3.26046875 4.62796875 3.7709375 5.2734375 4.296875 C7.08312318 6.08199481 8.00117455 7.67949644 9 10 C9.66 10 10.32 10 11 10 C11 10.66 11 11.32 11 12 C11.66 12 12.32 12 13 12 C13 12.66 13 13.32 13 14 C14.32 14.66 15.64 15.32 17 16 C17 16.99 17 17.98 17 19 C15.35 19.33 13.7 19.66 12 20 C12 19.01 12 18.02 12 17 C11.37400383 15.31763529 10.71247732 13.6476038 10 12 C8.02 12 6.04 12 4 12 C4 10.68 4 9.36 4 8 C3.34 7.67 2.68 7.34 2 7 C1.67 7.66 1.34 8.32 1 9 C1 7.68 1 6.36 1 5 C0.69595322 3.32774271 0.36871088 1.65919896 0 0 Z " fill="#3D7BE9" transform="translate(200,320)"/>
<path d="M0 0 C2.3125 -0.3125 2.3125 -0.3125 5 0 C5.391875 0.721875 5.78375 1.44375 6.1875 2.1875 C9.02301554 6.5874379 13.17661282 8.21895042 18 10 C21.05967137 10.61643379 23.86890731 10.84849551 27 11 C26.67 10.01 26.34 9.02 26 8 C28.475 8.495 28.475 8.495 31 9 C30 10.48046875 30 10.48046875 28 12 C25.24266451 12.27164428 22.74886405 12.37364021 20 12.3125 C19.27554688 12.31572266 18.55109375 12.31894531 17.8046875 12.32226562 C14.0192971 12.28385299 12.21704106 12.14469404 9 10 C9 9.34 9 8.68 9 8 C8.443125 7.79375 7.88625 7.5875 7.3125 7.375 C4.07498698 5.44999226 2.31768859 2.96149098 0 0 Z " fill="#3680E7" transform="translate(231,298)"/>
<path d="M0 0 C0.33 0 0.66 0 1 0 C1 1.98 1 3.96 1 6 C0.01 6.33 -0.98 6.66 -2 7 C-2.80529582 9.64681788 -3.44598119 12.17533206 -4 14.875 C-5.83322765 23.71488586 -5.83322765 23.71488586 -9 26 C-10.80332854 20.59001438 -7.97337771 15.16114171 -6 10 C-4.21995887 6.51076515 -2.31913267 3.16115622 0 0 Z " fill="#3777E9" transform="translate(105,117)"/>
<path d="M0 0 C0 0.66 0 1.32 0 2 C0.99 1.67 1.98 1.34 3 1 C3.99 1.99 4.98 2.98 6 4 C4.0509375 4.12375 4.0509375 4.12375 2.0625 4.25 C-2.43954225 4.73363171 -6.00532955 6.08861942 -10.0546875 8.0625 C-12 9 -12 9 -15 10 C-15.33 10.99 -15.66 11.98 -16 13 C-16.33 12.01 -16.66 11.02 -17 10 C-15.37660195 8.29115995 -13.70680947 6.62553283 -12 5 C-11.34 5 -10.68 5 -10 5 C-10 4.34 -10 3.68 -10 3 C-8.35 3 -6.7 3 -5 3 C-5 2.34 -5 1.68 -5 1 C-3 0 -3 0 0 0 Z " fill="#0D67F4" transform="translate(196,265)"/>
<path d="M0 0 C2.31 0 4.62 0 7 0 C7 0.66 7 1.32 7 2 C6.34 2 5.68 2 5 2 C5 2.66 5 3.32 5 4 C3.35546875 5.5859375 3.35546875 5.5859375 1.1875 7.375 C-1.06250857 9.23566282 -2.90350285 10.86872703 -4.63671875 13.2265625 C-5.08660156 13.81179687 -5.53648437 14.39703125 -6 15 C-6.66 15 -7.32 15 -8 15 C-8 15.66 -8 16.32 -8 17 C-8.66 16.67 -9.32 16.34 -10 16 C-9.67 14.68 -9.34 13.36 -9 12 C-8.01 12 -7.02 12 -6 12 C-5.67 10.35 -5.34 8.7 -5 7 C-4.01 6.67 -3.02 6.34 -2 6 C-0.77479736 2.99152582 -0.77479736 2.99152582 0 0 Z " fill="#4081EE" transform="translate(156,217)"/>
<path d="M0 0 C0.33 0 0.66 0 1 0 C1.04898438 1.29035156 1.09796875 2.58070313 1.1484375 3.91015625 C1.22351803 5.62762347 1.29906354 7.34507041 1.375 9.0625 C1.4059375 9.91005859 1.436875 10.75761719 1.46875 11.63085938 C1.70520828 16.73441716 2.53344988 21.07996088 4 26 C4.1953125 29.08984375 4.1953125 29.08984375 4.125 31.9375 C4.10695313 32.89527344 4.08890625 33.85304688 4.0703125 34.83984375 C4.03550781 35.90912109 4.03550781 35.90912109 4 37 C2 36 2 36 1.11328125 34.12109375 C-2.21865073 22.95505828 -0.79490254 11.47666641 0 0 Z " fill="#2C54E4" transform="translate(96,336)"/>
<path d="M0 0 C-0.5625 1.875 -0.5625 1.875 -2 4 C-7.19578096 5.8893749 -11.28242721 6.12667511 -16.6875 5.5 C-17.49574219 5.4071875 -18.30398437 5.314375 -19.13671875 5.21875 C-19.75160156 5.1465625 -20.36648437 5.074375 -21 5 C-17.73566095 3.31858398 -14.50951216 2.09672255 -11 1 C-10.360625 0.79375 -9.72125 0.5875 -9.0625 0.375 C-6.03771634 -0.17496067 -3.06515059 -0.0589452 0 0 Z " fill="#1779F1" transform="translate(146,96)"/>
<path d="M0 0 C0.66 0.33 1.32 0.66 2 1 C2.05391993 2.79133978 2.09275571 4.58313899 2.125 6.375 C2.14820313 7.37273437 2.17140625 8.37046875 2.1953125 9.3984375 C2 12 2 12 0 14 C0.29369827 15.34262065 0.6278958 16.67696283 1 18 C0.67 18.66 0.34 19.32 0 20 C-2.5625 20.625 -2.5625 20.625 -5 21 C-5.33 20.01 -5.66 19.02 -6 18 C-5.401875 17.195625 -4.80375 16.39125 -4.1875 15.5625 C-0.85969426 11.03714479 -0.66786435 5.43079166 0 0 Z " fill="#389FEB" transform="translate(325,208)"/>
<path d="M0 0 C2.475 0.99 2.475 0.99 5 2 C5.33 1.34 5.66 0.68 6 0 C6.33 1.65 6.66 3.3 7 5 C7.99 5 8.98 5 10 5 C10 5.66 10 6.32 10 7 C11.65 7 13.3 7 15 7 C15 7.66 15 8.32 15 9 C14.34 9 13.68 9 13 9 C13 9.66 13 10.32 13 11 C13.66 11 14.32 11 15 11 C14.67 12.32 14.34 13.64 14 15 C11.66265901 12.69152056 9.33081534 10.37756659 7 8.0625 C6.33226562 7.40314453 5.66453125 6.74378906 4.9765625 6.06445312 C4.34492188 5.43603516 3.71328125 4.80761719 3.0625 4.16015625 C2.47597656 3.57886963 1.88945312 2.99758301 1.28515625 2.39868164 C0 1 0 1 0 0 Z " fill="#4FAFEC" transform="translate(281,162)"/>
<path d="M0 0 C8.25 0 16.5 0 25 0 C24.67 0.99 24.34 1.98 24 3 C19.4131072 3.87470979 14.98052023 4.22424887 10.3125 4.3125 C9.00925781 4.34988281 7.70601562 4.38726562 6.36328125 4.42578125 C5.25339844 4.28527344 4.14351562 4.14476562 3 4 C2.01 2.68 1.02 1.36 0 0 Z " fill="#2769DC" transform="translate(238,349)"/>
<path d="M0 0 C-0.33 0.66 -0.66 1.32 -1 2 C-8.26 1.67 -15.52 1.34 -23 1 C-23 0.34 -23 -0.32 -23 -1 C-15.74633886 -3.41788705 -7.10834385 -2.64496515 0 0 Z " fill="#399EEB" transform="translate(263,151)"/>
<path d="M0 0 C0 0.66 0 1.32 0 2 C0.99 2.33 1.98 2.66 3 3 C2.67 4.32 2.34 5.64 2 7 C1.05125 7.0825 0.1025 7.165 -0.875 7.25 C-1.90625 7.4975 -2.9375 7.745 -4 8 C-5.22236202 9.98562946 -5.22236202 9.98562946 -6 12 C-6.08131463 10.56344146 -6.13933559 9.1255517 -6.1875 7.6875 C-6.22230469 6.88699219 -6.25710937 6.08648437 -6.29296875 5.26171875 C-6 3 -6 3 -4.67578125 1.20703125 C-3 0 -3 0 0 0 Z " fill="#1C70F4" transform="translate(173,263)"/>
<path d="M0 0 C-4.0646359 2.70975727 -8.37369157 4.45789719 -13 6 C-13 6.66 -13 7.32 -13 8 C-15.5 9.625 -15.5 9.625 -18 11 C-18.3125 8.6875 -18.3125 8.6875 -18 6 C-15.625 4.125 -15.625 4.125 -13 3 C-12.34 3.33 -11.68 3.66 -11 4 C-11 3.01 -11 2.02 -11 1 C-7.2297564 -1.56376565 -4.32597804 -0.83191885 0 0 Z " fill="#41A6EE" transform="translate(347,228)"/>
<path d="M0 0 C0 0.66 0 1.32 0 2 C0.804375 2.268125 1.60875 2.53625 2.4375 2.8125 C3.283125 3.204375 4.12875 3.59625 5 4 C5.33 4.99 5.66 5.98 6 7 C5.01 7.495 5.01 7.495 4 8 C3.67 7.34 3.34 6.68 3 6 C2.01 5.67 1.02 5.34 0 5 C0 4.34 0 3.68 0 3 C-0.66 3 -1.32 3 -2 3 C-2 2.34 -2 1.68 -2 1 C-8.39763868 1.33012726 -13.32198923 1.79701957 -19 5 C-19.66 4.67 -20.32 4.34 -21 4 C-14.42336134 -1.66321662 -8.45597202 -2.04993261 0 0 Z " fill="#5098E5" transform="translate(258,192)"/>
<path d="M0 0 C0.66 0 1.32 0 2 0 C1.75 1.875 1.75 1.875 1 4 C-0.32467746 4.6837045 -1.65863633 5.34964186 -3 6 C-4.26804566 8.0335948 -4.26804566 8.0335948 -5 10 C-5.66 10 -6.32 10 -7 10 C-7.268125 10.804375 -7.53625 11.60875 -7.8125 12.4375 C-8.204375 13.283125 -8.59625 14.12875 -9 15 C-9.99 15.33 -10.98 15.66 -12 16 C-13.66710346 17.49985609 -13.66710346 17.49985609 -15 19 C-15.99 18.67 -16.98 18.34 -18 18 C-17.43410156 17.51789063 -16.86820312 17.03578125 -16.28515625 16.5390625 C-15.18494141 15.59160156 -15.18494141 15.59160156 -14.0625 14.625 C-13.33160156 13.99851562 -12.60070312 13.37203125 -11.84765625 12.7265625 C-9.91619094 11.12252286 -9.91619094 11.12252286 -9 9 C-8.34 9 -7.68 9 -7 9 C-7 8.34 -7 7.68 -7 7 C-6.34 7 -5.68 7 -5 7 C-4.731875 6.360625 -4.46375 5.72125 -4.1875 5.0625 C-3 3 -3 3 0 2 C0 1.34 0 0.68 0 0 Z " fill="#5499E5" transform="translate(324,297)"/>
<path d="M0 0 C0.66 0.99 1.32 1.98 2 3 C1.34 3 0.68 3 0 3 C0 4.32 0 5.64 0 7 C-0.639375 7.474375 -1.27875 7.94875 -1.9375 8.4375 C-4.25475209 9.86542962 -4.25475209 9.86542962 -4.75 12.6875 C-4.8325 13.450625 -4.915 14.21375 -5 15 C-5.99 15.33 -6.98 15.66 -8 16 C-8.66 15.67 -9.32 15.34 -10 15 C-10.33 15.66 -10.66 16.32 -11 17 C-11.33 15.68 -11.66 14.36 -12 13 C-10.35 12.67 -8.7 12.34 -7 12 C-6.5978125 10.2984375 -6.5978125 10.2984375 -6.1875 8.5625 C-5.795625 7.386875 -5.40375 6.21125 -5 5 C-4.01 4.67 -3.02 4.34 -2 4 C-0.79117904 1.99983534 -0.79117904 1.99983534 0 0 Z " fill="#056EF8" transform="translate(203,232)"/>
<path d="M0 0 C0.33 0 0.66 0 1 0 C1.02578125 0.7734375 1.0515625 1.546875 1.078125 2.34375 C1.45644552 9.29109042 2.45191 14.01259812 6 20 C6.33 20.66 6.66 21.32 7 22 C5.02 21.34 3.04 20.68 1 20 C0.44183774 17.41924976 -0.0968763 14.83691099 -0.625 12.25 C-0.78484375 11.52039063 -0.9446875 10.79078125 -1.109375 10.0390625 C-2.20458069 4.56303404 -2.20458069 4.56303404 -1.0859375 1.484375 C-0.54839844 0.74960938 -0.54839844 0.74960938 0 0 Z " fill="#225CE6" transform="translate(130,247)"/>
<path d="M0 0 C0.92092281 4.65537356 1.12205997 9.14685433 1.0625 13.875 C1.05798828 14.56335938 1.05347656 15.25171875 1.04882812 15.9609375 C1.03716336 17.64066335 1.01923271 19.32034375 1 21 C0.67 21 0.34 21 0 21 C-0.03867187 19.93072266 -0.03867187 19.93072266 -0.078125 18.83984375 C-0.51701597 11.42857127 -1.59781051 6.40218949 -7 1 C-2.25 0 -2.25 0 0 0 Z " fill="#53B9F4" transform="translate(367,232)"/>
<path d="M0 0 C0.33 0 0.66 0 1 0 C2.00168798 9.61861833 2.47041289 17.74556563 -1 27 C-1.33 27 -1.66 27 -2 27 C-2.02688151 25.35425434 -2.04634123 23.70838587 -2.0625 22.0625 C-2.07410156 21.14597656 -2.08570313 20.22945313 -2.09765625 19.28515625 C-2 17 -2 17 -1 16 C-0.76321284 13.30764224 -0.57801975 10.63501844 -0.4375 7.9375 C-0.39431641 7.17888672 -0.35113281 6.42027344 -0.30664062 5.63867188 C-0.20026367 3.75934562 -0.09960066 1.87969756 0 0 Z " fill="#2B86E7" transform="translate(403,346)"/>
<path d="M0 0 C2 2 2 2 2.125 4.86328125 C2.04194942 7.15495818 1.95861802 9.44662495 1.875 11.73828125 C1.99954993 14.98825587 2.6033207 17.09207004 4 20 C1 19 1 19 -0.6875 16.9375 C-2.92743484 11.92431249 -2.46296062 7.62036216 -1 2.5 C-0.67 1.675 -0.34 0.85 0 0 Z " fill="#4D84E3" transform="translate(175,279)"/>
<path d="M0 0 C2.31 0.33 4.62 0.66 7 1 C4.57521995 3.42478005 2.13709971 4.54569748 -0.9375 6.0625 C-2.52884766 6.85333984 -2.52884766 6.85333984 -4.15234375 7.66015625 C-7 9 -7 9 -10 10 C-10 8.68 -10 7.36 -10 6 C-9.01 6 -8.02 6 -7 6 C-7 5.34 -7 4.68 -7 4 C-5.824375 3.8453125 -5.824375 3.8453125 -4.625 3.6875 C-1.66954819 3.22404978 -1.66954819 3.22404978 0 0 Z " fill="#4199EB" transform="translate(229,152)"/>
<path d="M0 0 C0.226875 0.639375 0.45375 1.27875 0.6875 1.9375 C1.84386666 4.26747433 1.84386666 4.26747433 4.5625 4.6875 C5.366875 4.790625 6.17125 4.89375 7 5 C8 6 8 6 8.0625 8.5625 C8.041875 9.366875 8.02125 10.17125 8 11 C8.66 11.33 9.32 11.66 10 12 C7 12 7 12 4.73828125 10.03125 C3.53751953 8.77828125 3.53751953 8.77828125 2.3125 7.5 C1.50425781 6.6646875 0.69601563 5.829375 -0.13671875 4.96875 C-0.75160156 4.3190625 -1.36648437 3.669375 -2 3 C-1.34 2.67 -0.68 2.34 0 2 C0 1.34 0 0.68 0 0 Z " fill="#3984EB" transform="translate(222,285)"/>
<path d="M0 0 C-1.74906531 0.64836042 -3.49929219 1.29358784 -5.25 1.9375 C-6.22453125 2.29714844 -7.1990625 2.65679687 -8.203125 3.02734375 C-12.03097611 4.35853778 -15.19111185 5.13014814 -19.25 5.0625 C-21.10625 5.0315625 -21.10625 5.0315625 -23 5 C-23.33 4.34 -23.66 3.68 -24 3 C-23.40574219 2.96261719 -22.81148438 2.92523438 -22.19921875 2.88671875 C-16.30743468 2.41940773 -10.98722561 1.29239595 -5.34765625 -0.4765625 C-3 -1 -3 -1 0 0 Z " fill="#4589E5" transform="translate(377,400)"/>
<path d="M0 0 C0.66 0.66 1.32 1.32 2 2 C4.71615864 2.37207354 4.71615864 2.37207354 7.8828125 2.4140625 C9.04941406 2.45273437 10.21601563 2.49140625 11.41796875 2.53125 C13.25294922 2.57765625 13.25294922 2.57765625 15.125 2.625 C16.35605469 2.66367187 17.58710938 2.70234375 18.85546875 2.7421875 C21.90349376 2.8366999 24.95150862 2.92225494 28 3 C28 3.33 28 3.66 28 4 C17.11 4 6.22 4 -5 4 C-3.74458443 1.48916886 -2.49936512 1.12874554 0 0 Z " fill="#1156EA" transform="translate(206,400)"/>
<path d="M0 0 C2.04262517 0.28487651 4.08407027 0.57822051 6.125 0.875 C7.26195312 1.03742188 8.39890625 1.19984375 9.5703125 1.3671875 C12.86078915 1.97431417 15.85779103 2.86345633 19 4 C15.09519751 5.35862973 11.2898224 4.89469712 7.25 4.5625 C6.55261719 4.51029297 5.85523438 4.45808594 5.13671875 4.40429688 C3.42403797 4.27525928 1.71194934 4.13840386 0 4 C0 2.68 0 1.36 0 0 Z " fill="#3DC0F0" transform="translate(352,95)"/>
<path d="M0 0 C-1.52708963 3.43595166 -3.59927045 6.11912454 -6 9 C-6.66 8.67 -7.32 8.34 -8 8 C-7.67 6.35 -7.34 4.7 -7 3 C-7.66 3 -8.32 3 -9 3 C-9 2.34 -9 1.68 -9 1 C-6.04335481 -0.4783226 -3.25770263 -0.06032783 0 0 Z " fill="#2E80F0" transform="translate(171,208)"/>
<path d="M0 0 C3.21043882 1.38188453 5.04936365 2.92421903 7.25 5.625 C7.77078125 6.25664062 8.2915625 6.88828125 8.828125 7.5390625 C9.40820312 8.26222656 9.40820312 8.26222656 10 9 C7.69 9 5.38 9 3 9 C2.67 7.02 2.34 5.04 2 3 C1.01 3 0.02 3 -1 3 C-0.67 2.01 -0.34 1.02 0 0 Z " fill="#1A83E9" transform="translate(263,199)"/>
<path d="M0 0 C5.64690212 -0.57916945 10.26611046 0.99450826 15 4 C16.5625 6.75 16.5625 6.75 17 9 C13.10391502 7.51095825 9.40902982 5.75621287 5.6875 3.875 C4.61886719 3.33617187 3.55023438 2.79734375 2.44921875 2.2421875 C1.64097656 1.83226562 0.83273437 1.42234375 0 1 C0 0.67 0 0.34 0 0 Z " fill="#4EAAE9" transform="translate(264,153)"/>
<path d="M0 0 C1.77108948 1.12459671 3.54186236 2.24969203 5.3125 3.375 C6.29863281 4.00148438 7.28476563 4.62796875 8.30078125 5.2734375 C10.21287929 6.49651613 12.1114034 7.7409356 14 9 C10.71303767 9.79953138 9.28976808 10.09658936 6 9 C6 8.01 6 7.02 6 6 C5.01 6 4.02 6 3 6 C3 5.34 3 4.68 3 4 C2.34 4 1.68 4 1 4 C0.67 2.68 0.34 1.36 0 0 Z " fill="#397DEB" transform="translate(218,338)"/>
<path d="M0 0 C0 0.99 0 1.98 0 3 C-0.66 3.66 -1.32 4.32 -2 5 C-2.71408334 6.98356483 -3.38617742 8.98315437 -4 11 C-6.31 11.33 -8.62 11.66 -11 12 C-9.625 10 -9.625 10 -8 8 C-7.34 8 -6.68 8 -6 8 C-6 7.34 -6 6.68 -6 6 C-5.34 6 -4.68 6 -4 6 C-3.71125 5.38125 -3.4225 4.7625 -3.125 4.125 C-2 2 -2 2 0 0 Z " fill="#5591E9" transform="translate(200,233)"/>
<path d="M0 0 C5.94 0.99 5.94 0.99 12 2 C12 3.32 12 4.64 12 6 C12.99 6.66 13.98 7.32 15 8 C11.30626473 7.41712333 8.50118255 6.40083644 5.25 4.5625 C4.47140625 4.13066406 3.6928125 3.69882812 2.890625 3.25390625 C1 2 1 2 0 0 Z " fill="#4F6DE5" transform="translate(116,394)"/>
<path d="M0 0 C0 3 0 3 -2.375 5.6875 C-5 8 -5 8 -7 8 C-7 8.66 -7 9.32 -7 10 C-8.32 9.67 -9.64 9.34 -11 9 C-9.73548068 7.68141572 -8.46314525 6.37032369 -7.1875 5.0625 C-6.47980469 4.33160156 -5.77210938 3.60070312 -5.04296875 2.84765625 C-3 1 -3 1 0 0 Z " fill="#218CE9" transform="translate(355,269)"/>
<path d="M0 0 C0.33 0.99 0.66 1.98 1 3 C-1.45251874 5.96883848 -3.19484037 6.59519578 -7 7 C-10.33527943 7.07161643 -13.66462535 7.0582881 -17 7 C-17 6.34 -17 5.68 -17 5 C-16.030625 5.0825 -15.06125 5.165 -14.0625 5.25 C-9.21036551 5.2797677 -5.21189297 3.25056084 -1 1 C-0.67 0.67 -0.34 0.34 0 0 Z " fill="#3E9FEC" transform="translate(318,227)"/>
<path d="M0 0 C1.32 0.33 2.64 0.66 4 1 C4 1.99 4 2.98 4 4 C5.65 4 7.3 4 9 4 C9 4.99 9 5.98 9 7 C9.31088368 8.67099977 9.64080332 10.33871537 10 12 C9.01 11.34 8.02 10.68 7 10 C7 9.34 7 8.68 7 8 C6.34 8 5.68 8 5 8 C4.34 6.35 3.68 4.7 3 3 C2.34 3 1.68 3 1 3 C0.67 2.01 0.34 1.02 0 0 Z " fill="#4666E4" transform="translate(103,380)"/>
<path d="M0 0 C0.268125 0.639375 0.53625 1.27875 0.8125 1.9375 C1.88667752 4.33131686 1.88667752 4.33131686 5 5 C5.68486725 6.32407669 6.34870203 7.65909241 7 9 C8.29470975 10.37086915 9.62150897 11.71340837 11 13 C8 13 8 13 6.24609375 11.28515625 C5.35083984 10.18494141 5.35083984 10.18494141 4.4375 9.0625 C2.08714476 6.07351045 2.08714476 6.07351045 -1 4 C-1 3.34 -1 2.68 -1 2 C-1.66 1.67 -2.32 1.34 -3 1 C-2.01 0.67 -1.02 0.34 0 0 Z " fill="#6094E9" transform="translate(210,273)"/>
<path d="M0 0 C1.32 0.33 2.64 0.66 4 1 C4 1.66 4 2.32 4 3 C3.34 3 2.68 3 2 3 C1.566875 4.423125 1.566875 4.423125 1.125 5.875 C0 9 0 9 -2 11 C-2 9.02 -2 7.04 -2 5 C-2.66 5 -3.32 5 -4 5 C-3.34 3.68 -2.68 2.36 -2 1 C-1.67 1.33 -1.34 1.66 -1 2 C-0.67 1.34 -0.34 0.68 0 0 Z " fill="#4985F2" transform="translate(133,242)"/>
<path d="M0 0 C0.99 0.495 0.99 0.495 2 1 C1.01 1.495 1.01 1.495 0 2 C0 1.34 0 0.68 0 0 Z M-2 2 C-1.34 2.33 -0.68 2.66 0 3 C-2.84756309 7.05230132 -5.34985578 9.2190937 -10 11 C-10.99 10.67 -11.98 10.34 -13 10 C-11.03292677 7.48651754 -10.18526966 7.02646709 -6.9375 6.5625 C-5.4834375 6.2840625 -5.4834375 6.2840625 -4 6 C-2.56362302 4.04836882 -2.56362302 4.04836882 -2 2 Z " fill="#217BF1" transform="translate(217,219)"/>
<path d="M0 0 C1.1446875 0.3403125 1.1446875 0.3403125 2.3125 0.6875 C1.6628125 1.30625 1.6628125 1.30625 1 1.9375 C-0.74691676 3.74911738 -2.18941162 5.6683374 -3.6875 7.6875 C-4.3475 8.3475 -5.0075 9.0075 -5.6875 9.6875 C-6.3475 9.3575 -7.0075 9.0275 -7.6875 8.6875 C-5.0095 -0.5825 -5.0095 -0.5825 0 0 Z " fill="#2A88F4" transform="translate(238.6875,197.3125)"/>
<path d="M0 0 C0.66 0 1.32 0 2 0 C2 0.66 2 1.32 2 2 C2.99 2 3.98 2 5 2 C5 1.34 5 0.68 5 0 C5.66 0 6.32 0 7 0 C6.34 2.97 5.68 5.94 5 9 C4.01 8.01 3.02 7.02 2 6 C2 5.34 2 4.68 2 4 C0.68 4 -0.64 4 -2 4 C-1.34 2.68 -0.68 1.36 0 0 Z " fill="#0B41F2" transform="translate(113,384)"/>
<path d="M0 0 C1.98 0.99 1.98 0.99 4 2 C4.75 5.125 4.75 5.125 5 8 C4.01 8.33 3.02 8.66 2 9 C1.67 10.32 1.34 11.64 1 13 C0.67 8.71 0.34 4.42 0 0 Z " fill="#0941F2" transform="translate(99,360)"/>
<path d="M0 0 C0.33 0.99 0.66 1.98 1 3 C-1.65381366 7.3522544 -4.10842202 8.7771055 -9 10 C-9 9.34 -9 8.68 -9 8 C-8.34 8 -7.68 8 -7 8 C-7 7.34 -7 6.68 -7 6 C-6.34 6 -5.68 6 -5 6 C-4.67 5.01 -4.34 4.02 -4 3 C-3.34 3 -2.68 3 -2 3 C-2 2.34 -2 1.68 -2 1 C-1.34 0.67 -0.68 0.34 0 0 Z " fill="#508DEC" transform="translate(115,107)"/>
<path d="M0 0 C0.66 0 1.32 0 2 0 C2 0.66 2 1.32 2 2 C1.34 2 0.68 2 0 2 C-0.66 3.32 -1.32 4.64 -2 6 C-2.66 6 -3.32 6 -4 6 C-4 6.66 -4 7.32 -4 8 C-4.66 8 -5.32 8 -6 8 C-6.33 8.99 -6.66 9.98 -7 11 C-8 8 -8 8 -7 5 C-6.01 5 -5.02 5 -4 5 C-4.33 3.68 -4.66 2.36 -5 1 C-4.34 1 -3.68 1 -3 1 C-3 1.66 -3 2.32 -3 3 C-2.34 3 -1.68 3 -1 3 C-0.67 2.01 -0.34 1.02 0 0 Z " fill="#428FE7" transform="translate(273,293)"/>
<path d="M0 0 C2.1875 0.3125 2.1875 0.3125 4 1 C2.625 3 2.625 3 1 5 C0.34 5 -0.32 5 -1 5 C-1 5.66 -1 6.32 -1 7 C-1.66 7 -2.32 7 -3 7 C-3 7.66 -3 8.32 -3 9 C-3.66 8.67 -4.32 8.34 -5 8 C-5 6.35 -5 4.7 -5 3 C-4.34 3 -3.68 3 -3 3 C-2.54625 2.484375 -2.0925 1.96875 -1.625 1.4375 C-1.08875 0.963125 -0.5525 0.48875 0 0 Z " fill="#45A3EE" transform="translate(317,247)"/>
<path d="M0 0 C-0.5775 0.268125 -1.155 0.53625 -1.75 0.8125 C-4.05747896 1.95053246 -4.05747896 1.95053246 -6.125 3.625 C-8 5 -8 5 -10 5 C-10.33 5.99 -10.66 6.98 -11 8 C-11.33 7.01 -11.66 6.02 -12 5 C-5.79166667 -1.37171053 -5.79166667 -1.37171053 0 0 Z " fill="#568DE5" transform="translate(191,270)"/>
<path d="M0 0 C6.27 0.33 12.54 0.66 19 1 C19 1.33 19 1.66 19 2 C17.77023438 2.09087891 17.77023438 2.09087891 16.515625 2.18359375 C14.89914063 2.30927734 14.89914063 2.30927734 13.25 2.4375 C11.64898437 2.55931641 11.64898437 2.55931641 10.015625 2.68359375 C7.56320038 2.94090773 5.36078709 3.31812218 3 4 C2.01 2.68 1.02 1.36 0 0 Z " fill="#7AAEF3" transform="translate(238,349)"/>
<path d="M0 0 C2.97 0 5.94 0 9 0 C8.34 1.65 7.68 3.3 7 5 C6.01 4.67 5.02 4.34 4 4 C3.01 4.33 2.02 4.66 1 5 C1.33 3.68 1.66 2.36 2 1 C1.34 0.67 0.68 0.34 0 0 Z " fill="#0F63F4" transform="translate(224,347)"/>
<path d="M0 0 C2.3125 -0.3125 2.3125 -0.3125 5 0 C6.875 2.3125 6.875 2.3125 8 5 C7.67 5.99 7.34 6.98 7 8 C5.83035398 6.8572081 4.66435444 5.71068285 3.5 4.5625 C2.8503125 3.92441406 2.200625 3.28632813 1.53125 2.62890625 C0 1 0 1 0 0 Z " fill="#4593EB" transform="translate(231,298)"/>
<path d="M0 0 C0.9075 0.61875 1.815 1.2375 2.75 1.875 C5.14948817 3.44389611 7.40961612 4.80443821 10 6 C2.25 7.125 2.25 7.125 0 6 C0 4.02 0 2.04 0 0 Z " fill="#4376E9" transform="translate(137,269)"/>
<path d="M0 0 C2 1 2 1 4 4 C3.125 7.6875 3.125 7.6875 2 11 C0.4375 9.4375 0.4375 9.4375 -1 7 C-0.6875 3.25 -0.6875 3.25 0 0 Z " fill="#2E57EE" transform="translate(101,369)"/>
<path d="M0 0 C3.65316671 1.24976756 4.78065836 1.67098753 7 5 C5.02 5.66 3.04 6.32 1 7 C1 6.01 1 5.02 1 4 C0.6937566 2.66018514 0.36548445 1.32488113 0 0 Z " fill="#3376ED" transform="translate(211,333)"/>
<path d="M0 0 C-1.01176437 3.40320742 -1.64843582 4.75725331 -4.625 6.8125 C-5.40875 7.204375 -6.1925 7.59625 -7 8 C-7 6.35 -7 4.7 -7 3 C-6.34 3 -5.68 3 -5 3 C-5 2.34 -5 1.68 -5 1 C-2 0 -2 0 0 0 Z " fill="#4087EA" transform="translate(178,201)"/>
<path d="M0 0 C1.16959987 0.97566112 2.33561177 1.955625 3.5 2.9375 C4.1496875 3.48277344 4.799375 4.02804687 5.46875 4.58984375 C5.9740625 5.05519531 6.479375 5.52054687 7 6 C7 6.33 7 6.66 7 7 C5.35 7 3.7 7 2 7 C1.67 7.66 1.34 8.32 1 9 C1 7.68 1 6.36 1 5 C0.69595322 3.32774271 0.36871088 1.65919896 0 0 Z " fill="#548DEF" transform="translate(200,320)"/>
<path d="M0 0 C0.66 0.33 1.32 0.66 2 1 C0.76302083 2.46484375 -0.47395833 3.9296875 -1.7109375 5.39453125 C-2.89201099 6.8655046 -3.95358529 8.43037794 -5 10 C-6.32 9.67 -7.64 9.34 -9 9 C-7.88121617 7.82737096 -6.75476949 6.66204862 -5.625 5.5 C-4.68527344 4.52546875 -4.68527344 4.52546875 -3.7265625 3.53125 C-2 2 -2 2 0 2 C0 1.34 0 0.68 0 0 Z " fill="#73ADE8" transform="translate(304,317)"/>
<path d="M0 0 C0.99 0.33 1.98 0.66 3 1 C3 1.66 3 2.32 3 3 C3.66 3 4.32 3 5 3 C5 3.66 5 4.32 5 5 C5.9590625 5.433125 5.9590625 5.433125 6.9375 5.875 C9 7 9 7 10 9 C8.35 8.67 6.7 8.34 5 8 C4.87625 7.071875 4.87625 7.071875 4.75 6.125 C4.18741541 3.81562433 4.18741541 3.81562433 1.9375 2.75 C1.298125 2.5025 0.65875 2.255 0 2 C0 1.34 0 0.68 0 0 Z " fill="#3E73DE" transform="translate(178,299)"/>
<path d="M0 0 C1 3 1 3 0 6 C-0.99 6 -1.98 6 -3 6 C-3 6.66 -3 7.32 -3 8 C-4.32 7.67 -5.64 7.34 -7 7 C-4.69 4.69 -2.38 2.38 0 0 Z " fill="#4685EB" transform="translate(184,249)"/>
<path d="M0 0 C1.14926266 0.95421808 2.29430541 1.91352045 3.4375 2.875 C4.07558594 3.40867188 4.71367187 3.94234375 5.37109375 4.4921875 C7 6 7 6 8 8 C5.36 8 2.72 8 0 8 C0 5.36 0 2.72 0 0 Z " fill="#4198EB" transform="translate(288,222)"/>
<path d="M0 0 C0.66 0 1.32 0 2 0 C1.34 1.98 0.68 3.96 0 6 C-0.66 6 -1.32 6 -2 6 C-2.33 6.66 -2.66 7.32 -3 8 C-3.99 8 -4.98 8 -6 8 C-6 7.34 -6 6.68 -6 6 C-5.34 6 -4.68 6 -4 6 C-4 5.34 -4 4.68 -4 4 C-3.34 4 -2.68 4 -2 4 C-2 3.34 -2 2.68 -2 2 C-1.34 2 -0.68 2 0 2 C0 1.34 0 0.68 0 0 Z " fill="#4D9EE8" transform="translate(342,279)"/>
<path d="M0 0 C1.53445094 3.06890187 0.54984289 5.70094266 0 9 C-1.32 8.67 -2.64 8.34 -4 8 C-3.40072174 4.64404172 -2.15377564 2.62198774 0 0 Z " fill="#3EA2EC" transform="translate(367,253)"/>
<path d="M0 0 C1.32 0 2.64 0 4 0 C4 0.99 4 1.98 4 3 C5.32 3.33 6.64 3.66 8 4 C7.67 5.32 7.34 6.64 7 8 C5.83035398 6.8572081 4.66435444 5.71068285 3.5 4.5625 C2.8503125 3.92441406 2.200625 3.28632813 1.53125 2.62890625 C0 1 0 1 0 0 Z " fill="#5DB2E9" transform="translate(300,181)"/>
<path d="M0 0 C0.66 0 1.32 0 2 0 C2.16788373 1.62487471 2.33426787 3.24990442 2.5 4.875 C2.5928125 5.77992188 2.685625 6.68484375 2.78125 7.6171875 C3 10 3 10 3 12 C2.34 12 1.68 12 1 12 C0.63597631 10.56496445 0.28413409 9.12683494 -0.0625 7.6875 C-0.25972656 6.88699219 -0.45695312 6.08648437 -0.66015625 5.26171875 C-1 3 -1 3 0 0 Z " fill="#16B8E9" transform="translate(403,142)"/>
<path d="M0 0 C0 0.99 0 1.98 0 3 C-0.66 3.66 -1.32 4.32 -2 5 C-4.72869407 4.96712417 -7.2966618 4.43602229 -10 4 C-6.77484237 2.26337666 -3.48670834 1.1094072 0 0 Z " fill="#4589EC" transform="translate(135,97)"/>
<path d="M0 0 C0.66 0.33 1.32 0.66 2 1 C1.25 7.625 1.25 7.625 -1 11 C-1.02688151 9.35425434 -1.04634123 7.70838587 -1.0625 6.0625 C-1.07410156 5.14597656 -1.08570313 4.22945313 -1.09765625 3.28515625 C-1 1 -1 1 0 0 Z " fill="#4398ED" transform="translate(402,362)"/>
<path d="M0 0 C0.99 0 1.98 0 3 0 C2.37240135 2.92879371 1.41377341 5.36095629 0 8 C-0.66 8 -1.32 8 -2 8 C-1.125 2.25 -1.125 2.25 0 0 Z " fill="#0C65F1" transform="translate(179,270)"/>
<path d="M0 0 C0.66 0 1.32 0 2 0 C3.32 2.64 4.64 5.28 6 8 C4.02 7.34 2.04 6.68 0 6 C0 4.02 0 2.04 0 0 Z " fill="#5487E6" transform="translate(131,261)"/>
<path d="M0 0 C0.33 0.66 0.66 1.32 1 2 C0.67 2.66 0.34 3.32 0 4 C-0.66 4 -1.32 4 -2 4 C-2 4.66 -2 5.32 -2 6 C-2.66 6 -3.32 6 -4 6 C-4 6.66 -4 7.32 -4 8 C-4.66 7.67 -5.32 7.34 -6 7 C-5.8125 4.625 -5.8125 4.625 -5 2 C-2.4375 0.6875 -2.4375 0.6875 0 0 Z " fill="#5896E9" transform="translate(193,185)"/>
<path d="M0 0 C1.32 0 2.64 0 4 0 C4 0.66 4 1.32 4 2 C3.34 2 2.68 2 2 2 C2 2.66 2 3.32 2 4 C2.66 4 3.32 4 4 4 C3.67 5.32 3.34 6.64 3 8 C1.5 6.8125 1.5 6.8125 0 5 C-0.1875 2.3125 -0.1875 2.3125 0 0 Z " fill="#39A5ED" transform="translate(292,169)"/>
<path d="M0 0 C0.33 0.66 0.66 1.32 1 2 C-3.39453125 6.00390625 -3.39453125 6.00390625 -5 7 C-5.99 6.67 -6.98 6.34 -8 6 C-3.375 1.125 -3.375 1.125 0 0 Z " fill="#3D85E9" transform="translate(216,219)"/>
<path d="M0 0 C0.33 0.99 0.66 1.98 1 3 C-0.125 5.125 -0.125 5.125 -2 7 C-4.6875 7.75 -4.6875 7.75 -7 8 C-6.02133662 6.85373678 -5.04205413 5.70800212 -4.0625 4.5625 C-3.51722656 3.92441406 -2.97195312 3.28632813 -2.41015625 2.62890625 C-1.63204305 1.73008851 -0.84063472 0.84063472 0 0 Z " fill="#61A5EA" transform="translate(221,212)"/>
<path d="M0 0 C0.33 0 0.66 0 1 0 C1 1.98 1 3.96 1 6 C-0.65 6.66 -2.3 7.32 -4 8 C-2.87548273 5.0280615 -1.77706209 2.66559313 0 0 Z " fill="#568BED" transform="translate(105,117)"/>
<path d="M0 0 C1.65 0 3.3 0 5 0 C5 0.66 5 1.32 5 2 C4.34 2 3.68 2 3 2 C2.34 3.65 1.68 5.3 1 7 C0.67 7 0.34 7 0 7 C0 4.69 0 2.38 0 0 Z " fill="#4394ED" transform="translate(393,379)"/>
<path d="M0 0 C0.33 0 0.66 0 1 0 C1 1.65 1 3.3 1 5 C-0.98 5.66 -2.96 6.32 -5 7 C-5 6.34 -5 5.68 -5 5 C-4.34 5 -3.68 5 -3 5 C-3 4.34 -3 3.68 -3 3 C-2.34 3 -1.68 3 -1 3 C-0.67 2.01 -0.34 1.02 0 0 Z " fill="#4E8FE7" transform="translate(294,327)"/>
<path d="M0 0 C1.32 0 2.64 0 4 0 C4 0.66 4 1.32 4 2 C3.34 2 2.68 2 2 2 C2 2.66 2 3.32 2 4 C1.34 4 0.68 4 0 4 C0 4.66 0 5.32 0 6 C-0.66 6 -1.32 6 -2 6 C-2 4.68 -2 3.36 -2 2 C-1.34 2 -0.68 2 0 2 C0 1.34 0 0.68 0 0 Z " fill="#469EEB" transform="translate(297,267)"/>
<path d="M0 0 C2.97 0.495 2.97 0.495 6 1 C6 1.66 6 2.32 6 3 C3.5 4.625 3.5 4.625 1 6 C1 5.01 1 4.02 1 3 C0.34 3 -0.32 3 -1 3 C-0.67 2.01 -0.34 1.02 0 0 Z " fill="#3E7DF3" transform="translate(140,233)"/>
<path d="M0 0 C1.32 0 2.64 0 4 0 C5.125 6.75 5.125 6.75 4 9 C3.67 7.35 3.34 5.7 3 4 C2.34 4 1.68 4 1 4 C0.67 2.68 0.34 1.36 0 0 Z " fill="#0896F6" transform="translate(322,200)"/>
<path d="M0 0 C1.80411967 2.75924185 2.0127245 3.88972103 1.625 7.25 C1.41875 8.1575 1.2125 9.065 1 10 C0.01 10 -0.98 10 -2 10 C-1.54177532 6.53058454 -1.10868317 3.32604951 0 0 Z " fill="#0766F9" transform="translate(102,126)"/>
<path d="M0 0 C1.32 0 2.64 0 4 0 C2.95125002 2.62187494 2.35068687 3.79371361 -0.125 5.25 C-0.74375 5.4975 -1.3625 5.745 -2 6 C-2 5.01 -2 4.02 -2 3 C-1.34 3 -0.68 3 0 3 C0 2.01 0 1.02 0 0 Z " fill="#3A8DE6" transform="translate(384,390)"/>
<path d="M0 0 C5.75 1.75 5.75 1.75 8 4 C7.67 4.99 7.34 5.98 7 7 C6.34 6.67 5.68 6.34 5 6 C5 5.01 5 4.02 5 3 C3.35 3 1.7 3 0 3 C0 2.01 0 1.02 0 0 Z " fill="#2A6BE6" transform="translate(184,307)"/>
<path d="M0 0 C0 0.33 0 0.66 0 1 C-1.62324086 1.22162329 -3.248721 1.42689803 -4.875 1.625 C-6.23238281 1.79902344 -6.23238281 1.79902344 -7.6171875 1.9765625 C-8.40351563 1.98429687 -9.18984375 1.99203125 -10 2 C-10.66 1.34 -11.32 0.68 -12 0 C-7.66726186 -0.92844389 -4.33273814 -0.92844389 0 0 Z " fill="#276CE3" transform="translate(198,268)"/>
<path d="M0 0 C3.3 0 6.6 0 10 0 C9.34 1.32 8.68 2.64 8 4 C7.34 4 6.68 4 6 4 C5.67 3.34 5.34 2.68 5 2 C3.35 2 1.7 2 0 2 C0 1.34 0 0.68 0 0 Z " fill="#058CF8" transform="translate(300,234)"/>
<path d="M0 0 C2.04119788 1.61594832 4.04072937 3.2856382 6 5 C6 5.66 6 6.32 6 7 C4.68 7 3.36 7 2 7 C1.34 4.69 0.68 2.38 0 0 Z " fill="#67ABEB" transform="translate(281,215)"/>
<path d="M0 0 C1.33597652 0.80814651 2.668725 1.62163181 4 2.4375 C5.11375 3.11619141 5.11375 3.11619141 6.25 3.80859375 C6.8275 4.20175781 7.405 4.59492188 8 5 C8 5.33 8 5.66 8 6 C6.35 6 4.7 6 3 6 C3 5.34 3 4.68 3 4 C2.34 4 1.68 4 1 4 C0.67 2.68 0.34 1.36 0 0 Z " fill="#5688E7" transform="translate(218,338)"/>
<path d="M0 0 C-0.33 1.32 -0.66 2.64 -1 4 C-2.32 4.33 -3.64 4.66 -5 5 C-5 3.68 -5 2.36 -5 1 C-3 0 -3 0 0 0 Z " fill="#3B8AE8" transform="translate(207,172)"/>
<path d="M0 0 C1.32 0.66 2.64 1.32 4 2 C3.67 3.65 3.34 5.3 3 7 C2.34 7 1.68 7 1 7 C-0.0625 4.625 -0.0625 4.625 -1 2 C-0.67 1.34 -0.34 0.68 0 0 Z " fill="#254EE1" transform="translate(113,387)"/>
<path d="M0 0 C0.66 0.99 1.32 1.98 2 3 C1.01 3.99 0.02 4.98 -1 6 C-1.66 5.67 -2.32 5.34 -3 5 C-2.625 3.0625 -2.625 3.0625 -2 1 C-1.34 0.67 -0.68 0.34 0 0 Z " fill="#0863F3" transform="translate(217,338)"/>
<path d="M0 0 C2.02054804 1.64169528 4.02043058 3.30911778 6 5 C6 5.33 6 5.66 6 6 C4.02 6 2.04 6 0 6 C0 4.02 0 2.04 0 0 Z " fill="#0B61F8" transform="translate(176,298)"/>
<path d="M0 0 C0.66 0.33 1.32 0.66 2 1 C1.34 2.65 0.68 4.3 0 6 C-1.32 6 -2.64 6 -4 6 C-4 5.34 -4 4.68 -4 4 C-3.34 4 -2.68 4 -2 4 C-2 3.34 -2 2.68 -2 2 C-1.34 2 -0.68 2 0 2 C0 1.34 0 0.68 0 0 Z " fill="#52A3E8" transform="translate(334,287)"/>
<path d="M0 0 C1.65 0 3.3 0 5 0 C5 0.66 5 1.32 5 2 C4.01 2.66 3.02 3.32 2 4 C0.80767387 6.05003955 0.80767387 6.05003955 0 8 C0 5.36 0 2.72 0 0 Z " fill="#0B61F2" transform="translate(167,267)"/>
<path d="M0 0 C0.99 0.33 1.98 0.66 3 1 C-0.465 3.97 -0.465 3.97 -4 7 C-4 6.01 -4 5.02 -4 4 C-3.34 4 -2.68 4 -2 4 C-1.34 2.68 -0.68 1.36 0 0 Z " fill="#469FE6" transform="translate(326,239)"/>
</svg>
